# Small Blue, Single White Stripe
# WEMAS 400.000043.00.00
# Units: centimeters. Unreal Engine uses centimeters by default.
mtllib fsae_cones.mtl

v -11.40000 -11.40000 0.00000
v 11.40000 -11.40000 0.00000
v 11.40000 11.40000 0.00000
v -11.40000 11.40000 0.00000
v -10.40000 -10.40000 2.50000
v 10.40000 -10.40000 2.50000
v 10.40000 10.40000 2.50000
v -10.40000 10.40000 2.50000
v 8.94400 0.00000 2.50000
v 7.06800 0.00000 3.70000
v 8.90093 0.87667 2.50000
v 7.03397 0.69279 3.70000
v 8.77214 1.74489 2.50000
v 6.93219 1.37890 3.70000
v 8.55887 2.59631 2.50000
v 6.76365 2.05173 3.70000
v 8.26318 3.42272 2.50000
v 6.52998 2.70481 3.70000
v 7.88790 4.21617 2.50000
v 6.23342 3.33183 3.70000
v 7.43666 4.96902 2.50000
v 5.87683 3.92677 3.70000
v 6.91381 5.67401 2.50000
v 5.46364 4.48389 3.70000
v 6.32436 6.32436 2.50000
v 4.99783 4.99783 3.70000
v 5.67401 6.91381 2.50000
v 4.48389 5.46364 3.70000
v 4.96902 7.43666 2.50000
v 3.92677 5.87683 3.70000
v 4.21617 7.88790 2.50000
v 3.33183 6.23342 3.70000
v 3.42272 8.26318 2.50000
v 2.70481 6.52998 3.70000
v 2.59631 8.55887 2.50000
v 2.05173 6.76365 3.70000
v 1.74489 8.77214 2.50000
v 1.37890 6.93219 3.70000
v 0.87667 8.90093 2.50000
v 0.69279 7.03397 3.70000
v 0.00000 8.94400 2.50000
v 0.00000 7.06800 3.70000
v -0.87667 8.90093 2.50000
v -0.69279 7.03397 3.70000
v -1.74489 8.77214 2.50000
v -1.37890 6.93219 3.70000
v -2.59631 8.55887 2.50000
v -2.05173 6.76365 3.70000
v -3.42272 8.26318 2.50000
v -2.70481 6.52998 3.70000
v -4.21617 7.88790 2.50000
v -3.33183 6.23342 3.70000
v -4.96902 7.43666 2.50000
v -3.92677 5.87683 3.70000
v -5.67401 6.91381 2.50000
v -4.48389 5.46364 3.70000
v -6.32436 6.32436 2.50000
v -4.99783 4.99783 3.70000
v -6.91381 5.67401 2.50000
v -5.46364 4.48389 3.70000
v -7.43666 4.96902 2.50000
v -5.87683 3.92677 3.70000
v -7.88790 4.21617 2.50000
v -6.23342 3.33183 3.70000
v -8.26318 3.42272 2.50000
v -6.52998 2.70481 3.70000
v -8.55887 2.59631 2.50000
v -6.76365 2.05173 3.70000
v -8.77214 1.74489 2.50000
v -6.93219 1.37890 3.70000
v -8.90093 0.87667 2.50000
v -7.03397 0.69279 3.70000
v -8.94400 0.00000 2.50000
v -7.06800 0.00000 3.70000
v -8.90093 -0.87667 2.50000
v -7.03397 -0.69279 3.70000
v -8.77214 -1.74489 2.50000
v -6.93219 -1.37890 3.70000
v -8.55887 -2.59631 2.50000
v -6.76365 -2.05173 3.70000
v -8.26318 -3.42272 2.50000
v -6.52998 -2.70481 3.70000
v -7.88790 -4.21617 2.50000
v -6.23342 -3.33183 3.70000
v -7.43666 -4.96902 2.50000
v -5.87683 -3.92677 3.70000
v -6.91381 -5.67401 2.50000
v -5.46364 -4.48389 3.70000
v -6.32436 -6.32436 2.50000
v -4.99783 -4.99783 3.70000
v -5.67401 -6.91381 2.50000
v -4.48389 -5.46364 3.70000
v -4.96902 -7.43666 2.50000
v -3.92677 -5.87683 3.70000
v -4.21617 -7.88790 2.50000
v -3.33183 -6.23342 3.70000
v -3.42272 -8.26318 2.50000
v -2.70481 -6.52998 3.70000
v -2.59631 -8.55887 2.50000
v -2.05173 -6.76365 3.70000
v -1.74489 -8.77214 2.50000
v -1.37890 -6.93219 3.70000
v -0.87667 -8.90093 2.50000
v -0.69279 -7.03397 3.70000
v -0.00000 -8.94400 2.50000
v -0.00000 -7.06800 3.70000
v 0.87667 -8.90093 2.50000
v 0.69279 -7.03397 3.70000
v 1.74489 -8.77214 2.50000
v 1.37890 -6.93219 3.70000
v 2.59631 -8.55887 2.50000
v 2.05173 -6.76365 3.70000
v 3.42272 -8.26318 2.50000
v 2.70481 -6.52998 3.70000
v 4.21617 -7.88790 2.50000
v 3.33183 -6.23342 3.70000
v 4.96902 -7.43666 2.50000
v 3.92677 -5.87683 3.70000
v 5.67401 -6.91381 2.50000
v 4.48389 -5.46364 3.70000
v 6.32436 -6.32436 2.50000
v 4.99783 -4.99783 3.70000
v 6.91381 -5.67401 2.50000
v 5.46364 -4.48389 3.70000
v 7.43666 -4.96902 2.50000
v 5.87683 -3.92677 3.70000
v 7.88790 -4.21617 2.50000
v 6.23342 -3.33183 3.70000
v 8.26318 -3.42272 2.50000
v 6.52998 -2.70481 3.70000
v 8.55887 -2.59631 2.50000
v 6.76365 -2.05173 3.70000
v 8.77214 -1.74489 2.50000
v 6.93219 -1.37890 3.70000
v 8.90093 -0.87667 2.50000
v 7.03397 -0.69279 3.70000
v 7.06800 0.00000 3.70000
v 7.03397 0.69279 3.70000
v 6.93219 1.37890 3.70000
v 6.76365 2.05173 3.70000
v 6.52998 2.70481 3.70000
v 6.23342 3.33183 3.70000
v 5.87683 3.92677 3.70000
v 5.46364 4.48389 3.70000
v 4.99783 4.99783 3.70000
v 4.48389 5.46364 3.70000
v 3.92677 5.87683 3.70000
v 3.33183 6.23342 3.70000
v 2.70481 6.52998 3.70000
v 2.05173 6.76365 3.70000
v 1.37890 6.93219 3.70000
v 0.69279 7.03397 3.70000
v 0.00000 7.06800 3.70000
v -0.69279 7.03397 3.70000
v -1.37890 6.93219 3.70000
v -2.05173 6.76365 3.70000
v -2.70481 6.52998 3.70000
v -3.33183 6.23342 3.70000
v -3.92677 5.87683 3.70000
v -4.48389 5.46364 3.70000
v -4.99783 4.99783 3.70000
v -5.46364 4.48389 3.70000
v -5.87683 3.92677 3.70000
v -6.23342 3.33183 3.70000
v -6.52998 2.70481 3.70000
v -6.76365 2.05173 3.70000
v -6.93219 1.37890 3.70000
v -7.03397 0.69279 3.70000
v -7.06800 0.00000 3.70000
v -7.03397 -0.69279 3.70000
v -6.93219 -1.37890 3.70000
v -6.76365 -2.05173 3.70000
v -6.52998 -2.70481 3.70000
v -6.23342 -3.33183 3.70000
v -5.87683 -3.92677 3.70000
v -5.46364 -4.48389 3.70000
v -4.99783 -4.99783 3.70000
v -4.48389 -5.46364 3.70000
v -3.92677 -5.87683 3.70000
v -3.33183 -6.23342 3.70000
v -2.70481 -6.52998 3.70000
v -2.05173 -6.76365 3.70000
v -1.37890 -6.93219 3.70000
v -0.69279 -7.03397 3.70000
v -0.00000 -7.06800 3.70000
v 0.69279 -7.03397 3.70000
v 1.37890 -6.93219 3.70000
v 2.05173 -6.76365 3.70000
v 2.70481 -6.52998 3.70000
v 3.33183 -6.23342 3.70000
v 3.92677 -5.87683 3.70000
v 4.48389 -5.46364 3.70000
v 4.99783 -4.99783 3.70000
v 5.46364 -4.48389 3.70000
v 5.87683 -3.92677 3.70000
v 6.23342 -3.33183 3.70000
v 6.52998 -2.70481 3.70000
v 6.76365 -2.05173 3.70000
v 6.93219 -1.37890 3.70000
v 7.03397 -0.69279 3.70000
v 6.23743 0.00000 7.81429
v 6.20739 0.61137 7.81429
v 6.11758 1.21686 7.81429
v 5.96885 1.81063 7.81429
v 5.76263 2.38696 7.81429
v 5.50092 2.94030 7.81429
v 5.18623 3.46533 7.81429
v 4.82160 3.95698 7.81429
v 4.41053 4.41053 7.81429
v 3.95698 4.82160 7.81429
v 3.46533 5.18623 7.81429
v 2.94030 5.50092 7.81429
v 2.38696 5.76263 7.81429
v 1.81063 5.96885 7.81429
v 1.21686 6.11758 7.81429
v 0.61137 6.20739 7.81429
v 0.00000 6.23743 7.81429
v -0.61137 6.20739 7.81429
v -1.21686 6.11758 7.81429
v -1.81063 5.96885 7.81429
v -2.38696 5.76263 7.81429
v -2.94030 5.50092 7.81429
v -3.46533 5.18623 7.81429
v -3.95698 4.82160 7.81429
v -4.41053 4.41053 7.81429
v -4.82160 3.95698 7.81429
v -5.18623 3.46533 7.81429
v -5.50092 2.94030 7.81429
v -5.76263 2.38696 7.81429
v -5.96885 1.81063 7.81429
v -6.11758 1.21686 7.81429
v -6.20739 0.61137 7.81429
v -6.23743 0.00000 7.81429
v -6.20739 -0.61137 7.81429
v -6.11758 -1.21686 7.81429
v -5.96885 -1.81063 7.81429
v -5.76263 -2.38696 7.81429
v -5.50092 -2.94030 7.81429
v -5.18623 -3.46533 7.81429
v -4.82160 -3.95698 7.81429
v -4.41053 -4.41053 7.81429
v -3.95698 -4.82160 7.81429
v -3.46533 -5.18623 7.81429
v -2.94030 -5.50092 7.81429
v -2.38696 -5.76263 7.81429
v -1.81063 -5.96885 7.81429
v -1.21686 -6.11758 7.81429
v -0.61137 -6.20739 7.81429
v -0.00000 -6.23743 7.81429
v 0.61137 -6.20739 7.81429
v 1.21686 -6.11758 7.81429
v 1.81063 -5.96885 7.81429
v 2.38696 -5.76263 7.81429
v 2.94030 -5.50092 7.81429
v 3.46533 -5.18623 7.81429
v 3.95698 -4.82160 7.81429
v 4.41053 -4.41053 7.81429
v 4.82160 -3.95698 7.81429
v 5.18623 -3.46533 7.81429
v 5.50092 -2.94030 7.81429
v 5.76263 -2.38696 7.81429
v 5.96885 -1.81063 7.81429
v 6.11758 -1.21686 7.81429
v 6.20739 -0.61137 7.81429
v 5.40686 0.00000 11.92857
v 5.38082 0.52996 11.92857
v 5.30297 1.05483 11.92857
v 5.17404 1.56953 11.92857
v 4.99528 2.06911 11.92857
v 4.76842 2.54877 11.92857
v 4.49564 3.00389 11.92857
v 4.17956 3.43007 11.92857
v 3.82323 3.82323 11.92857
v 3.43007 4.17956 11.92857
v 3.00389 4.49564 11.92857
v 2.54877 4.76842 11.92857
v 2.06911 4.99528 11.92857
v 1.56953 5.17404 11.92857
v 1.05483 5.30297 11.92857
v 0.52996 5.38082 11.92857
v 0.00000 5.40686 11.92857
v -0.52996 5.38082 11.92857
v -1.05483 5.30297 11.92857
v -1.56953 5.17404 11.92857
v -2.06911 4.99528 11.92857
v -2.54877 4.76842 11.92857
v -3.00389 4.49564 11.92857
v -3.43007 4.17956 11.92857
v -3.82323 3.82323 11.92857
v -4.17956 3.43007 11.92857
v -4.49564 3.00389 11.92857
v -4.76842 2.54877 11.92857
v -4.99528 2.06911 11.92857
v -5.17404 1.56953 11.92857
v -5.30297 1.05483 11.92857
v -5.38082 0.52996 11.92857
v -5.40686 0.00000 11.92857
v -5.38082 -0.52996 11.92857
v -5.30297 -1.05483 11.92857
v -5.17404 -1.56953 11.92857
v -4.99528 -2.06911 11.92857
v -4.76842 -2.54877 11.92857
v -4.49564 -3.00389 11.92857
v -4.17956 -3.43007 11.92857
v -3.82323 -3.82323 11.92857
v -3.43007 -4.17956 11.92857
v -3.00389 -4.49564 11.92857
v -2.54877 -4.76842 11.92857
v -2.06911 -4.99528 11.92857
v -1.56953 -5.17404 11.92857
v -1.05483 -5.30297 11.92857
v -0.52996 -5.38082 11.92857
v -0.00000 -5.40686 11.92857
v 0.52996 -5.38082 11.92857
v 1.05483 -5.30297 11.92857
v 1.56953 -5.17404 11.92857
v 2.06911 -4.99528 11.92857
v 2.54877 -4.76842 11.92857
v 3.00389 -4.49564 11.92857
v 3.43007 -4.17956 11.92857
v 3.82323 -3.82323 11.92857
v 4.17956 -3.43007 11.92857
v 4.49564 -3.00389 11.92857
v 4.76842 -2.54877 11.92857
v 4.99528 -2.06911 11.92857
v 5.17404 -1.56953 11.92857
v 5.30297 -1.05483 11.92857
v 5.38082 -0.52996 11.92857
v 4.57629 0.00000 16.04286
v 4.55425 0.44855 16.04286
v 4.48835 0.89279 16.04286
v 4.37923 1.32843 16.04286
v 4.22794 1.75127 16.04286
v 4.03592 2.15725 16.04286
v 3.80504 2.54245 16.04286
v 3.53752 2.90316 16.04286
v 3.23592 3.23592 16.04286
v 2.90316 3.53752 16.04286
v 2.54245 3.80504 16.04286
v 2.15725 4.03592 16.04286
v 1.75127 4.22794 16.04286
v 1.32843 4.37923 16.04286
v 0.89279 4.48835 16.04286
v 0.44855 4.55425 16.04286
v 0.00000 4.57629 16.04286
v -0.44855 4.55425 16.04286
v -0.89279 4.48835 16.04286
v -1.32843 4.37923 16.04286
v -1.75127 4.22794 16.04286
v -2.15725 4.03592 16.04286
v -2.54245 3.80504 16.04286
v -2.90316 3.53752 16.04286
v -3.23592 3.23592 16.04286
v -3.53752 2.90316 16.04286
v -3.80504 2.54245 16.04286
v -4.03592 2.15725 16.04286
v -4.22794 1.75127 16.04286
v -4.37923 1.32843 16.04286
v -4.48835 0.89279 16.04286
v -4.55425 0.44855 16.04286
v -4.57629 0.00000 16.04286
v -4.55425 -0.44855 16.04286
v -4.48835 -0.89279 16.04286
v -4.37923 -1.32843 16.04286
v -4.22794 -1.75127 16.04286
v -4.03592 -2.15725 16.04286
v -3.80504 -2.54245 16.04286
v -3.53752 -2.90316 16.04286
v -3.23592 -3.23592 16.04286
v -2.90316 -3.53752 16.04286
v -2.54245 -3.80504 16.04286
v -2.15725 -4.03592 16.04286
v -1.75127 -4.22794 16.04286
v -1.32843 -4.37923 16.04286
v -0.89279 -4.48835 16.04286
v -0.44855 -4.55425 16.04286
v -0.00000 -4.57629 16.04286
v 0.44855 -4.55425 16.04286
v 0.89279 -4.48835 16.04286
v 1.32843 -4.37923 16.04286
v 1.75127 -4.22794 16.04286
v 2.15725 -4.03592 16.04286
v 2.54245 -3.80504 16.04286
v 2.90316 -3.53752 16.04286
v 3.23592 -3.23592 16.04286
v 3.53752 -2.90316 16.04286
v 3.80504 -2.54245 16.04286
v 4.03592 -2.15725 16.04286
v 4.22794 -1.75127 16.04286
v 4.37923 -1.32843 16.04286
v 4.48835 -0.89279 16.04286
v 4.55425 -0.44855 16.04286
v 4.28213 0.00000 17.50000
v 4.26151 0.41972 17.50000
v 4.19985 0.83540 17.50000
v 4.09774 1.24304 17.50000
v 3.95617 1.63870 17.50000
v 3.77650 2.01858 17.50000
v 3.56046 2.37902 17.50000
v 3.31013 2.71655 17.50000
v 3.02792 3.02792 17.50000
v 2.71655 3.31013 17.50000
v 2.37902 3.56046 17.50000
v 2.01858 3.77650 17.50000
v 1.63870 3.95617 17.50000
v 1.24304 4.09774 17.50000
v 0.83540 4.19985 17.50000
v 0.41972 4.26151 17.50000
v 0.00000 4.28213 17.50000
v -0.41972 4.26151 17.50000
v -0.83540 4.19985 17.50000
v -1.24304 4.09774 17.50000
v -1.63870 3.95617 17.50000
v -2.01858 3.77650 17.50000
v -2.37902 3.56046 17.50000
v -2.71655 3.31013 17.50000
v -3.02792 3.02792 17.50000
v -3.31013 2.71655 17.50000
v -3.56046 2.37902 17.50000
v -3.77650 2.01858 17.50000
v -3.95617 1.63870 17.50000
v -4.09774 1.24304 17.50000
v -4.19985 0.83540 17.50000
v -4.26151 0.41972 17.50000
v -4.28213 0.00000 17.50000
v -4.26151 -0.41972 17.50000
v -4.19985 -0.83540 17.50000
v -4.09774 -1.24304 17.50000
v -3.95617 -1.63870 17.50000
v -3.77650 -2.01858 17.50000
v -3.56046 -2.37902 17.50000
v -3.31013 -2.71655 17.50000
v -3.02792 -3.02792 17.50000
v -2.71655 -3.31013 17.50000
v -2.37902 -3.56046 17.50000
v -2.01858 -3.77650 17.50000
v -1.63870 -3.95617 17.50000
v -1.24304 -4.09774 17.50000
v -0.83540 -4.19985 17.50000
v -0.41972 -4.26151 17.50000
v -0.00000 -4.28213 17.50000
v 0.41972 -4.26151 17.50000
v 0.83540 -4.19985 17.50000
v 1.24304 -4.09774 17.50000
v 1.63870 -3.95617 17.50000
v 2.01858 -3.77650 17.50000
v 2.37902 -3.56046 17.50000
v 2.71655 -3.31013 17.50000
v 3.02792 -3.02792 17.50000
v 3.31013 -2.71655 17.50000
v 3.56046 -2.37902 17.50000
v 3.77650 -2.01858 17.50000
v 3.95617 -1.63870 17.50000
v 4.09774 -1.24304 17.50000
v 4.19985 -0.83540 17.50000
v 4.26151 -0.41972 17.50000
v 3.74571 0.00000 20.15714
v 3.72768 0.36714 20.15714
v 3.67374 0.73075 20.15714
v 3.58443 1.08732 20.15714
v 3.46059 1.43342 20.15714
v 3.30343 1.76572 20.15714
v 3.11445 2.08101 20.15714
v 2.89548 2.37626 20.15714
v 2.64862 2.64862 20.15714
v 2.37626 2.89548 20.15714
v 2.08101 3.11445 20.15714
v 1.76572 3.30343 20.15714
v 1.43342 3.46059 20.15714
v 1.08732 3.58443 20.15714
v 0.73075 3.67374 20.15714
v 0.36714 3.72768 20.15714
v 0.00000 3.74571 20.15714
v -0.36714 3.72768 20.15714
v -0.73075 3.67374 20.15714
v -1.08732 3.58443 20.15714
v -1.43342 3.46059 20.15714
v -1.76572 3.30343 20.15714
v -2.08101 3.11445 20.15714
v -2.37626 2.89548 20.15714
v -2.64862 2.64862 20.15714
v -2.89548 2.37626 20.15714
v -3.11445 2.08101 20.15714
v -3.30343 1.76572 20.15714
v -3.46059 1.43342 20.15714
v -3.58443 1.08732 20.15714
v -3.67374 0.73075 20.15714
v -3.72768 0.36714 20.15714
v -3.74571 0.00000 20.15714
v -3.72768 -0.36714 20.15714
v -3.67374 -0.73075 20.15714
v -3.58443 -1.08732 20.15714
v -3.46059 -1.43342 20.15714
v -3.30343 -1.76572 20.15714
v -3.11445 -2.08101 20.15714
v -2.89548 -2.37626 20.15714
v -2.64862 -2.64862 20.15714
v -2.37626 -2.89548 20.15714
v -2.08101 -3.11445 20.15714
v -1.76572 -3.30343 20.15714
v -1.43342 -3.46059 20.15714
v -1.08732 -3.58443 20.15714
v -0.73075 -3.67374 20.15714
v -0.36714 -3.72768 20.15714
v -0.00000 -3.74571 20.15714
v 0.36714 -3.72768 20.15714
v 0.73075 -3.67374 20.15714
v 1.08732 -3.58443 20.15714
v 1.43342 -3.46059 20.15714
v 1.76572 -3.30343 20.15714
v 2.08101 -3.11445 20.15714
v 2.37626 -2.89548 20.15714
v 2.64862 -2.64862 20.15714
v 2.89548 -2.37626 20.15714
v 3.11445 -2.08101 20.15714
v 3.30343 -1.76572 20.15714
v 3.46059 -1.43342 20.15714
v 3.58443 -1.08732 20.15714
v 3.67374 -0.73075 20.15714
v 3.72768 -0.36714 20.15714
v 3.17181 0.00000 23.00000
v 3.15654 0.31089 23.00000
v 3.11087 0.61879 23.00000
v 3.03524 0.92073 23.00000
v 2.93037 1.21380 23.00000
v 2.79729 1.49518 23.00000
v 2.63727 1.76216 23.00000
v 2.45184 2.01218 23.00000
v 2.24281 2.24281 23.00000
v 2.01218 2.45184 23.00000
v 1.76216 2.63727 23.00000
v 1.49518 2.79729 23.00000
v 1.21380 2.93037 23.00000
v 0.92073 3.03524 23.00000
v 0.61879 3.11087 23.00000
v 0.31089 3.15654 23.00000
v 0.00000 3.17181 23.00000
v -0.31089 3.15654 23.00000
v -0.61879 3.11087 23.00000
v -0.92073 3.03524 23.00000
v -1.21380 2.93037 23.00000
v -1.49518 2.79729 23.00000
v -1.76216 2.63727 23.00000
v -2.01218 2.45184 23.00000
v -2.24281 2.24281 23.00000
v -2.45184 2.01218 23.00000
v -2.63727 1.76216 23.00000
v -2.79729 1.49518 23.00000
v -2.93037 1.21380 23.00000
v -3.03524 0.92073 23.00000
v -3.11087 0.61879 23.00000
v -3.15654 0.31089 23.00000
v -3.17181 0.00000 23.00000
v -3.15654 -0.31089 23.00000
v -3.11087 -0.61879 23.00000
v -3.03524 -0.92073 23.00000
v -2.93037 -1.21380 23.00000
v -2.79729 -1.49518 23.00000
v -2.63727 -1.76216 23.00000
v -2.45184 -2.01218 23.00000
v -2.24281 -2.24281 23.00000
v -2.01218 -2.45184 23.00000
v -1.76216 -2.63727 23.00000
v -1.49518 -2.79729 23.00000
v -1.21380 -2.93037 23.00000
v -0.92073 -3.03524 23.00000
v -0.61879 -3.11087 23.00000
v -0.31089 -3.15654 23.00000
v -0.00000 -3.17181 23.00000
v 0.31089 -3.15654 23.00000
v 0.61879 -3.11087 23.00000
v 0.92073 -3.03524 23.00000
v 1.21380 -2.93037 23.00000
v 1.49518 -2.79729 23.00000
v 1.76216 -2.63727 23.00000
v 2.01218 -2.45184 23.00000
v 2.24281 -2.24281 23.00000
v 2.45184 -2.01218 23.00000
v 2.63727 -1.76216 23.00000
v 2.79729 -1.49518 23.00000
v 2.93037 -1.21380 23.00000
v 3.03524 -0.92073 23.00000
v 3.11087 -0.61879 23.00000
v 3.15654 -0.31089 23.00000
v 2.91514 0.00000 24.27143
v 2.90111 0.28573 24.27143
v 2.85913 0.56872 24.27143
v 2.78962 0.84622 24.27143
v 2.69324 1.11558 24.27143
v 2.57093 1.37419 24.27143
v 2.42385 1.61957 24.27143
v 2.25344 1.84935 24.27143
v 2.06132 2.06132 24.27143
v 1.84935 2.25344 24.27143
v 1.61957 2.42385 24.27143
v 1.37419 2.57093 24.27143
v 1.11558 2.69324 24.27143
v 0.84622 2.78962 24.27143
v 0.56872 2.85913 24.27143
v 0.28573 2.90111 24.27143
v 0.00000 2.91514 24.27143
v -0.28573 2.90111 24.27143
v -0.56872 2.85913 24.27143
v -0.84622 2.78962 24.27143
v -1.11558 2.69324 24.27143
v -1.37419 2.57093 24.27143
v -1.61957 2.42385 24.27143
v -1.84935 2.25344 24.27143
v -2.06132 2.06132 24.27143
v -2.25344 1.84935 24.27143
v -2.42385 1.61957 24.27143
v -2.57093 1.37419 24.27143
v -2.69324 1.11558 24.27143
v -2.78962 0.84622 24.27143
v -2.85913 0.56872 24.27143
v -2.90111 0.28573 24.27143
v -2.91514 0.00000 24.27143
v -2.90111 -0.28573 24.27143
v -2.85913 -0.56872 24.27143
v -2.78962 -0.84622 24.27143
v -2.69324 -1.11558 24.27143
v -2.57093 -1.37419 24.27143
v -2.42385 -1.61957 24.27143
v -2.25344 -1.84935 24.27143
v -2.06132 -2.06132 24.27143
v -1.84935 -2.25344 24.27143
v -1.61957 -2.42385 24.27143
v -1.37419 -2.57093 24.27143
v -1.11558 -2.69324 24.27143
v -0.84622 -2.78962 24.27143
v -0.56872 -2.85913 24.27143
v -0.28573 -2.90111 24.27143
v -0.00000 -2.91514 24.27143
v 0.28573 -2.90111 24.27143
v 0.56872 -2.85913 24.27143
v 0.84622 -2.78962 24.27143
v 1.11558 -2.69324 24.27143
v 1.37419 -2.57093 24.27143
v 1.61957 -2.42385 24.27143
v 1.84935 -2.25344 24.27143
v 2.06132 -2.06132 24.27143
v 2.25344 -1.84935 24.27143
v 2.42385 -1.61957 24.27143
v 2.57093 -1.37419 24.27143
v 2.69324 -1.11558 24.27143
v 2.78962 -0.84622 24.27143
v 2.85913 -0.56872 24.27143
v 2.90111 -0.28573 24.27143
v 2.08457 0.00000 28.38571
v 2.07453 0.20432 28.38571
v 2.04452 0.40668 28.38571
v 1.99481 0.60512 28.38571
v 1.92589 0.79773 28.38571
v 1.83843 0.98266 28.38571
v 1.73326 1.15813 28.38571
v 1.61140 1.32244 28.38571
v 1.47401 1.47401 28.38571
v 1.32244 1.61140 28.38571
v 1.15813 1.73326 28.38571
v 0.98266 1.83843 28.38571
v 0.79773 1.92589 28.38571
v 0.60512 1.99481 28.38571
v 0.40668 2.04452 28.38571
v 0.20432 2.07453 28.38571
v 0.00000 2.08457 28.38571
v -0.20432 2.07453 28.38571
v -0.40668 2.04452 28.38571
v -0.60512 1.99481 28.38571
v -0.79773 1.92589 28.38571
v -0.98266 1.83843 28.38571
v -1.15813 1.73326 28.38571
v -1.32244 1.61140 28.38571
v -1.47401 1.47401 28.38571
v -1.61140 1.32244 28.38571
v -1.73326 1.15813 28.38571
v -1.83843 0.98266 28.38571
v -1.92589 0.79773 28.38571
v -1.99481 0.60512 28.38571
v -2.04452 0.40668 28.38571
v -2.07453 0.20432 28.38571
v -2.08457 0.00000 28.38571
v -2.07453 -0.20432 28.38571
v -2.04452 -0.40668 28.38571
v -1.99481 -0.60512 28.38571
v -1.92589 -0.79773 28.38571
v -1.83843 -0.98266 28.38571
v -1.73326 -1.15813 28.38571
v -1.61140 -1.32244 28.38571
v -1.47401 -1.47401 28.38571
v -1.32244 -1.61140 28.38571
v -1.15813 -1.73326 28.38571
v -0.98266 -1.83843 28.38571
v -0.79773 -1.92589 28.38571
v -0.60512 -1.99481 28.38571
v -0.40668 -2.04452 28.38571
v -0.20432 -2.07453 28.38571
v -0.00000 -2.08457 28.38571
v 0.20432 -2.07453 28.38571
v 0.40668 -2.04452 28.38571
v 0.60512 -1.99481 28.38571
v 0.79773 -1.92589 28.38571
v 0.98266 -1.83843 28.38571
v 1.15813 -1.73326 28.38571
v 1.32244 -1.61140 28.38571
v 1.47401 -1.47401 28.38571
v 1.61140 -1.32244 28.38571
v 1.73326 -1.15813 28.38571
v 1.83843 -0.98266 28.38571
v 1.92589 -0.79773 28.38571
v 1.99481 -0.60512 28.38571
v 2.04452 -0.40668 28.38571
v 2.07453 -0.20432 28.38571
v 1.25400 0.00000 32.50000
v 1.24796 0.12291 32.50000
v 1.22990 0.24464 32.50000
v 1.20000 0.36402 32.50000
v 1.15854 0.47989 32.50000
v 1.10593 0.59113 32.50000
v 1.04266 0.69669 32.50000
v 0.96936 0.79553 32.50000
v 0.88671 0.88671 32.50000
v 0.79553 0.96936 32.50000
v 0.69669 1.04266 32.50000
v 0.59113 1.10593 32.50000
v 0.47989 1.15854 32.50000
v 0.36402 1.20000 32.50000
v 0.24464 1.22990 32.50000
v 0.12291 1.24796 32.50000
v 0.00000 1.25400 32.50000
v -0.12291 1.24796 32.50000
v -0.24464 1.22990 32.50000
v -0.36402 1.20000 32.50000
v -0.47989 1.15854 32.50000
v -0.59113 1.10593 32.50000
v -0.69669 1.04266 32.50000
v -0.79553 0.96936 32.50000
v -0.88671 0.88671 32.50000
v -0.96936 0.79553 32.50000
v -1.04266 0.69669 32.50000
v -1.10593 0.59113 32.50000
v -1.15854 0.47989 32.50000
v -1.20000 0.36402 32.50000
v -1.22990 0.24464 32.50000
v -1.24796 0.12291 32.50000
v -1.25400 0.00000 32.50000
v -1.24796 -0.12291 32.50000
v -1.22990 -0.24464 32.50000
v -1.20000 -0.36402 32.50000
v -1.15854 -0.47989 32.50000
v -1.10593 -0.59113 32.50000
v -1.04266 -0.69669 32.50000
v -0.96936 -0.79553 32.50000
v -0.88671 -0.88671 32.50000
v -0.79553 -0.96936 32.50000
v -0.69669 -1.04266 32.50000
v -0.59113 -1.10593 32.50000
v -0.47989 -1.15854 32.50000
v -0.36402 -1.20000 32.50000
v -0.24464 -1.22990 32.50000
v -0.12291 -1.24796 32.50000
v -0.00000 -1.25400 32.50000
v 0.12291 -1.24796 32.50000
v 0.24464 -1.22990 32.50000
v 0.36402 -1.20000 32.50000
v 0.47989 -1.15854 32.50000
v 0.59113 -1.10593 32.50000
v 0.69669 -1.04266 32.50000
v 0.79553 -0.96936 32.50000
v 0.88671 -0.88671 32.50000
v 0.96936 -0.79553 32.50000
v 1.04266 -0.69669 32.50000
v 1.10593 -0.59113 32.50000
v 1.15854 -0.47989 32.50000
v 1.20000 -0.36402 32.50000
v 1.22990 -0.24464 32.50000
v 1.24796 -0.12291 32.50000
v 0.00000 0.00000 3.70000
v 0.00000 0.00000 32.50000

vt 0.00000 0.00000
vt 1.00000 0.00000
vt 1.00000 1.00000
vt 0.00000 1.00000
vt 0.00000 0.00000
vt 1.00000 0.00000
vt 1.00000 1.00000
vt 0.00000 1.00000
vt 0.00000 0.07692
vt 0.00000 0.11385
vt 0.01562 0.07692
vt 0.01562 0.11385
vt 0.03125 0.07692
vt 0.03125 0.11385
vt 0.04688 0.07692
vt 0.04688 0.11385
vt 0.06250 0.07692
vt 0.06250 0.11385
vt 0.07812 0.07692
vt 0.07812 0.11385
vt 0.09375 0.07692
vt 0.09375 0.11385
vt 0.10938 0.07692
vt 0.10938 0.11385
vt 0.12500 0.07692
vt 0.12500 0.11385
vt 0.14062 0.07692
vt 0.14062 0.11385
vt 0.15625 0.07692
vt 0.15625 0.11385
vt 0.17188 0.07692
vt 0.17188 0.11385
vt 0.18750 0.07692
vt 0.18750 0.11385
vt 0.20312 0.07692
vt 0.20312 0.11385
vt 0.21875 0.07692
vt 0.21875 0.11385
vt 0.23438 0.07692
vt 0.23438 0.11385
vt 0.25000 0.07692
vt 0.25000 0.11385
vt 0.26562 0.07692
vt 0.26562 0.11385
vt 0.28125 0.07692
vt 0.28125 0.11385
vt 0.29688 0.07692
vt 0.29688 0.11385
vt 0.31250 0.07692
vt 0.31250 0.11385
vt 0.32812 0.07692
vt 0.32812 0.11385
vt 0.34375 0.07692
vt 0.34375 0.11385
vt 0.35938 0.07692
vt 0.35938 0.11385
vt 0.37500 0.07692
vt 0.37500 0.11385
vt 0.39062 0.07692
vt 0.39062 0.11385
vt 0.40625 0.07692
vt 0.40625 0.11385
vt 0.42188 0.07692
vt 0.42188 0.11385
vt 0.43750 0.07692
vt 0.43750 0.11385
vt 0.45312 0.07692
vt 0.45312 0.11385
vt 0.46875 0.07692
vt 0.46875 0.11385
vt 0.48438 0.07692
vt 0.48438 0.11385
vt 0.50000 0.07692
vt 0.50000 0.11385
vt 0.51562 0.07692
vt 0.51562 0.11385
vt 0.53125 0.07692
vt 0.53125 0.11385
vt 0.54688 0.07692
vt 0.54688 0.11385
vt 0.56250 0.07692
vt 0.56250 0.11385
vt 0.57812 0.07692
vt 0.57812 0.11385
vt 0.59375 0.07692
vt 0.59375 0.11385
vt 0.60938 0.07692
vt 0.60938 0.11385
vt 0.62500 0.07692
vt 0.62500 0.11385
vt 0.64062 0.07692
vt 0.64062 0.11385
vt 0.65625 0.07692
vt 0.65625 0.11385
vt 0.67188 0.07692
vt 0.67188 0.11385
vt 0.68750 0.07692
vt 0.68750 0.11385
vt 0.70312 0.07692
vt 0.70312 0.11385
vt 0.71875 0.07692
vt 0.71875 0.11385
vt 0.73438 0.07692
vt 0.73438 0.11385
vt 0.75000 0.07692
vt 0.75000 0.11385
vt 0.76562 0.07692
vt 0.76562 0.11385
vt 0.78125 0.07692
vt 0.78125 0.11385
vt 0.79688 0.07692
vt 0.79688 0.11385
vt 0.81250 0.07692
vt 0.81250 0.11385
vt 0.82812 0.07692
vt 0.82812 0.11385
vt 0.84375 0.07692
vt 0.84375 0.11385
vt 0.85938 0.07692
vt 0.85938 0.11385
vt 0.87500 0.07692
vt 0.87500 0.11385
vt 0.89062 0.07692
vt 0.89062 0.11385
vt 0.90625 0.07692
vt 0.90625 0.11385
vt 0.92188 0.07692
vt 0.92188 0.11385
vt 0.93750 0.07692
vt 0.93750 0.11385
vt 0.95312 0.07692
vt 0.95312 0.11385
vt 0.96875 0.07692
vt 0.96875 0.11385
vt 0.98438 0.07692
vt 0.98438 0.11385
vt 0.00000 0.11385
vt 0.01562 0.11385
vt 0.03125 0.11385
vt 0.04688 0.11385
vt 0.06250 0.11385
vt 0.07812 0.11385
vt 0.09375 0.11385
vt 0.10938 0.11385
vt 0.12500 0.11385
vt 0.14062 0.11385
vt 0.15625 0.11385
vt 0.17188 0.11385
vt 0.18750 0.11385
vt 0.20312 0.11385
vt 0.21875 0.11385
vt 0.23438 0.11385
vt 0.25000 0.11385
vt 0.26562 0.11385
vt 0.28125 0.11385
vt 0.29688 0.11385
vt 0.31250 0.11385
vt 0.32812 0.11385
vt 0.34375 0.11385
vt 0.35938 0.11385
vt 0.37500 0.11385
vt 0.39062 0.11385
vt 0.40625 0.11385
vt 0.42188 0.11385
vt 0.43750 0.11385
vt 0.45312 0.11385
vt 0.46875 0.11385
vt 0.48438 0.11385
vt 0.50000 0.11385
vt 0.51562 0.11385
vt 0.53125 0.11385
vt 0.54688 0.11385
vt 0.56250 0.11385
vt 0.57812 0.11385
vt 0.59375 0.11385
vt 0.60938 0.11385
vt 0.62500 0.11385
vt 0.64062 0.11385
vt 0.65625 0.11385
vt 0.67188 0.11385
vt 0.68750 0.11385
vt 0.70312 0.11385
vt 0.71875 0.11385
vt 0.73438 0.11385
vt 0.75000 0.11385
vt 0.76562 0.11385
vt 0.78125 0.11385
vt 0.79688 0.11385
vt 0.81250 0.11385
vt 0.82812 0.11385
vt 0.84375 0.11385
vt 0.85938 0.11385
vt 0.87500 0.11385
vt 0.89062 0.11385
vt 0.90625 0.11385
vt 0.92188 0.11385
vt 0.93750 0.11385
vt 0.95312 0.11385
vt 0.96875 0.11385
vt 0.98438 0.11385
vt 0.00000 0.24044
vt 0.01562 0.24044
vt 0.03125 0.24044
vt 0.04688 0.24044
vt 0.06250 0.24044
vt 0.07812 0.24044
vt 0.09375 0.24044
vt 0.10938 0.24044
vt 0.12500 0.24044
vt 0.14062 0.24044
vt 0.15625 0.24044
vt 0.17188 0.24044
vt 0.18750 0.24044
vt 0.20312 0.24044
vt 0.21875 0.24044
vt 0.23438 0.24044
vt 0.25000 0.24044
vt 0.26562 0.24044
vt 0.28125 0.24044
vt 0.29688 0.24044
vt 0.31250 0.24044
vt 0.32812 0.24044
vt 0.34375 0.24044
vt 0.35938 0.24044
vt 0.37500 0.24044
vt 0.39062 0.24044
vt 0.40625 0.24044
vt 0.42188 0.24044
vt 0.43750 0.24044
vt 0.45312 0.24044
vt 0.46875 0.24044
vt 0.48438 0.24044
vt 0.50000 0.24044
vt 0.51562 0.24044
vt 0.53125 0.24044
vt 0.54688 0.24044
vt 0.56250 0.24044
vt 0.57812 0.24044
vt 0.59375 0.24044
vt 0.60938 0.24044
vt 0.62500 0.24044
vt 0.64062 0.24044
vt 0.65625 0.24044
vt 0.67188 0.24044
vt 0.68750 0.24044
vt 0.70312 0.24044
vt 0.71875 0.24044
vt 0.73438 0.24044
vt 0.75000 0.24044
vt 0.76562 0.24044
vt 0.78125 0.24044
vt 0.79688 0.24044
vt 0.81250 0.24044
vt 0.82812 0.24044
vt 0.84375 0.24044
vt 0.85938 0.24044
vt 0.87500 0.24044
vt 0.89062 0.24044
vt 0.90625 0.24044
vt 0.92188 0.24044
vt 0.93750 0.24044
vt 0.95312 0.24044
vt 0.96875 0.24044
vt 0.98438 0.24044
vt 0.00000 0.36703
vt 0.01562 0.36703
vt 0.03125 0.36703
vt 0.04688 0.36703
vt 0.06250 0.36703
vt 0.07812 0.36703
vt 0.09375 0.36703
vt 0.10938 0.36703
vt 0.12500 0.36703
vt 0.14062 0.36703
vt 0.15625 0.36703
vt 0.17188 0.36703
vt 0.18750 0.36703
vt 0.20312 0.36703
vt 0.21875 0.36703
vt 0.23438 0.36703
vt 0.25000 0.36703
vt 0.26562 0.36703
vt 0.28125 0.36703
vt 0.29688 0.36703
vt 0.31250 0.36703
vt 0.32812 0.36703
vt 0.34375 0.36703
vt 0.35938 0.36703
vt 0.37500 0.36703
vt 0.39062 0.36703
vt 0.40625 0.36703
vt 0.42188 0.36703
vt 0.43750 0.36703
vt 0.45312 0.36703
vt 0.46875 0.36703
vt 0.48438 0.36703
vt 0.50000 0.36703
vt 0.51562 0.36703
vt 0.53125 0.36703
vt 0.54688 0.36703
vt 0.56250 0.36703
vt 0.57812 0.36703
vt 0.59375 0.36703
vt 0.60938 0.36703
vt 0.62500 0.36703
vt 0.64062 0.36703
vt 0.65625 0.36703
vt 0.67188 0.36703
vt 0.68750 0.36703
vt 0.70312 0.36703
vt 0.71875 0.36703
vt 0.73438 0.36703
vt 0.75000 0.36703
vt 0.76562 0.36703
vt 0.78125 0.36703
vt 0.79688 0.36703
vt 0.81250 0.36703
vt 0.82812 0.36703
vt 0.84375 0.36703
vt 0.85938 0.36703
vt 0.87500 0.36703
vt 0.89062 0.36703
vt 0.90625 0.36703
vt 0.92188 0.36703
vt 0.93750 0.36703
vt 0.95312 0.36703
vt 0.96875 0.36703
vt 0.98438 0.36703
vt 0.00000 0.49363
vt 0.01562 0.49363
vt 0.03125 0.49363
vt 0.04688 0.49363
vt 0.06250 0.49363
vt 0.07812 0.49363
vt 0.09375 0.49363
vt 0.10938 0.49363
vt 0.12500 0.49363
vt 0.14062 0.49363
vt 0.15625 0.49363
vt 0.17188 0.49363
vt 0.18750 0.49363
vt 0.20312 0.49363
vt 0.21875 0.49363
vt 0.23438 0.49363
vt 0.25000 0.49363
vt 0.26562 0.49363
vt 0.28125 0.49363
vt 0.29688 0.49363
vt 0.31250 0.49363
vt 0.32812 0.49363
vt 0.34375 0.49363
vt 0.35938 0.49363
vt 0.37500 0.49363
vt 0.39062 0.49363
vt 0.40625 0.49363
vt 0.42188 0.49363
vt 0.43750 0.49363
vt 0.45312 0.49363
vt 0.46875 0.49363
vt 0.48438 0.49363
vt 0.50000 0.49363
vt 0.51562 0.49363
vt 0.53125 0.49363
vt 0.54688 0.49363
vt 0.56250 0.49363
vt 0.57812 0.49363
vt 0.59375 0.49363
vt 0.60938 0.49363
vt 0.62500 0.49363
vt 0.64062 0.49363
vt 0.65625 0.49363
vt 0.67188 0.49363
vt 0.68750 0.49363
vt 0.70312 0.49363
vt 0.71875 0.49363
vt 0.73438 0.49363
vt 0.75000 0.49363
vt 0.76562 0.49363
vt 0.78125 0.49363
vt 0.79688 0.49363
vt 0.81250 0.49363
vt 0.82812 0.49363
vt 0.84375 0.49363
vt 0.85938 0.49363
vt 0.87500 0.49363
vt 0.89062 0.49363
vt 0.90625 0.49363
vt 0.92188 0.49363
vt 0.93750 0.49363
vt 0.95312 0.49363
vt 0.96875 0.49363
vt 0.98438 0.49363
vt 0.00000 0.53846
vt 0.01562 0.53846
vt 0.03125 0.53846
vt 0.04688 0.53846
vt 0.06250 0.53846
vt 0.07812 0.53846
vt 0.09375 0.53846
vt 0.10938 0.53846
vt 0.12500 0.53846
vt 0.14062 0.53846
vt 0.15625 0.53846
vt 0.17188 0.53846
vt 0.18750 0.53846
vt 0.20312 0.53846
vt 0.21875 0.53846
vt 0.23438 0.53846
vt 0.25000 0.53846
vt 0.26562 0.53846
vt 0.28125 0.53846
vt 0.29688 0.53846
vt 0.31250 0.53846
vt 0.32812 0.53846
vt 0.34375 0.53846
vt 0.35938 0.53846
vt 0.37500 0.53846
vt 0.39062 0.53846
vt 0.40625 0.53846
vt 0.42188 0.53846
vt 0.43750 0.53846
vt 0.45312 0.53846
vt 0.46875 0.53846
vt 0.48438 0.53846
vt 0.50000 0.53846
vt 0.51562 0.53846
vt 0.53125 0.53846
vt 0.54688 0.53846
vt 0.56250 0.53846
vt 0.57812 0.53846
vt 0.59375 0.53846
vt 0.60938 0.53846
vt 0.62500 0.53846
vt 0.64062 0.53846
vt 0.65625 0.53846
vt 0.67188 0.53846
vt 0.68750 0.53846
vt 0.70312 0.53846
vt 0.71875 0.53846
vt 0.73438 0.53846
vt 0.75000 0.53846
vt 0.76562 0.53846
vt 0.78125 0.53846
vt 0.79688 0.53846
vt 0.81250 0.53846
vt 0.82812 0.53846
vt 0.84375 0.53846
vt 0.85938 0.53846
vt 0.87500 0.53846
vt 0.89062 0.53846
vt 0.90625 0.53846
vt 0.92188 0.53846
vt 0.93750 0.53846
vt 0.95312 0.53846
vt 0.96875 0.53846
vt 0.98438 0.53846
vt 0.00000 0.62022
vt 0.01562 0.62022
vt 0.03125 0.62022
vt 0.04688 0.62022
vt 0.06250 0.62022
vt 0.07812 0.62022
vt 0.09375 0.62022
vt 0.10938 0.62022
vt 0.12500 0.62022
vt 0.14062 0.62022
vt 0.15625 0.62022
vt 0.17188 0.62022
vt 0.18750 0.62022
vt 0.20312 0.62022
vt 0.21875 0.62022
vt 0.23438 0.62022
vt 0.25000 0.62022
vt 0.26562 0.62022
vt 0.28125 0.62022
vt 0.29688 0.62022
vt 0.31250 0.62022
vt 0.32812 0.62022
vt 0.34375 0.62022
vt 0.35938 0.62022
vt 0.37500 0.62022
vt 0.39062 0.62022
vt 0.40625 0.62022
vt 0.42188 0.62022
vt 0.43750 0.62022
vt 0.45312 0.62022
vt 0.46875 0.62022
vt 0.48438 0.62022
vt 0.50000 0.62022
vt 0.51562 0.62022
vt 0.53125 0.62022
vt 0.54688 0.62022
vt 0.56250 0.62022
vt 0.57812 0.62022
vt 0.59375 0.62022
vt 0.60938 0.62022
vt 0.62500 0.62022
vt 0.64062 0.62022
vt 0.65625 0.62022
vt 0.67188 0.62022
vt 0.68750 0.62022
vt 0.70312 0.62022
vt 0.71875 0.62022
vt 0.73438 0.62022
vt 0.75000 0.62022
vt 0.76562 0.62022
vt 0.78125 0.62022
vt 0.79688 0.62022
vt 0.81250 0.62022
vt 0.82812 0.62022
vt 0.84375 0.62022
vt 0.85938 0.62022
vt 0.87500 0.62022
vt 0.89062 0.62022
vt 0.90625 0.62022
vt 0.92188 0.62022
vt 0.93750 0.62022
vt 0.95312 0.62022
vt 0.96875 0.62022
vt 0.98438 0.62022
vt 0.00000 0.70769
vt 0.01562 0.70769
vt 0.03125 0.70769
vt 0.04688 0.70769
vt 0.06250 0.70769
vt 0.07812 0.70769
vt 0.09375 0.70769
vt 0.10938 0.70769
vt 0.12500 0.70769
vt 0.14062 0.70769
vt 0.15625 0.70769
vt 0.17188 0.70769
vt 0.18750 0.70769
vt 0.20312 0.70769
vt 0.21875 0.70769
vt 0.23438 0.70769
vt 0.25000 0.70769
vt 0.26562 0.70769
vt 0.28125 0.70769
vt 0.29688 0.70769
vt 0.31250 0.70769
vt 0.32812 0.70769
vt 0.34375 0.70769
vt 0.35938 0.70769
vt 0.37500 0.70769
vt 0.39062 0.70769
vt 0.40625 0.70769
vt 0.42188 0.70769
vt 0.43750 0.70769
vt 0.45312 0.70769
vt 0.46875 0.70769
vt 0.48438 0.70769
vt 0.50000 0.70769
vt 0.51562 0.70769
vt 0.53125 0.70769
vt 0.54688 0.70769
vt 0.56250 0.70769
vt 0.57812 0.70769
vt 0.59375 0.70769
vt 0.60938 0.70769
vt 0.62500 0.70769
vt 0.64062 0.70769
vt 0.65625 0.70769
vt 0.67188 0.70769
vt 0.68750 0.70769
vt 0.70312 0.70769
vt 0.71875 0.70769
vt 0.73438 0.70769
vt 0.75000 0.70769
vt 0.76562 0.70769
vt 0.78125 0.70769
vt 0.79688 0.70769
vt 0.81250 0.70769
vt 0.82812 0.70769
vt 0.84375 0.70769
vt 0.85938 0.70769
vt 0.87500 0.70769
vt 0.89062 0.70769
vt 0.90625 0.70769
vt 0.92188 0.70769
vt 0.93750 0.70769
vt 0.95312 0.70769
vt 0.96875 0.70769
vt 0.98438 0.70769
vt 0.00000 0.74681
vt 0.01562 0.74681
vt 0.03125 0.74681
vt 0.04688 0.74681
vt 0.06250 0.74681
vt 0.07812 0.74681
vt 0.09375 0.74681
vt 0.10938 0.74681
vt 0.12500 0.74681
vt 0.14062 0.74681
vt 0.15625 0.74681
vt 0.17188 0.74681
vt 0.18750 0.74681
vt 0.20312 0.74681
vt 0.21875 0.74681
vt 0.23438 0.74681
vt 0.25000 0.74681
vt 0.26562 0.74681
vt 0.28125 0.74681
vt 0.29688 0.74681
vt 0.31250 0.74681
vt 0.32812 0.74681
vt 0.34375 0.74681
vt 0.35938 0.74681
vt 0.37500 0.74681
vt 0.39062 0.74681
vt 0.40625 0.74681
vt 0.42188 0.74681
vt 0.43750 0.74681
vt 0.45312 0.74681
vt 0.46875 0.74681
vt 0.48438 0.74681
vt 0.50000 0.74681
vt 0.51562 0.74681
vt 0.53125 0.74681
vt 0.54688 0.74681
vt 0.56250 0.74681
vt 0.57812 0.74681
vt 0.59375 0.74681
vt 0.60938 0.74681
vt 0.62500 0.74681
vt 0.64062 0.74681
vt 0.65625 0.74681
vt 0.67188 0.74681
vt 0.68750 0.74681
vt 0.70312 0.74681
vt 0.71875 0.74681
vt 0.73438 0.74681
vt 0.75000 0.74681
vt 0.76562 0.74681
vt 0.78125 0.74681
vt 0.79688 0.74681
vt 0.81250 0.74681
vt 0.82812 0.74681
vt 0.84375 0.74681
vt 0.85938 0.74681
vt 0.87500 0.74681
vt 0.89062 0.74681
vt 0.90625 0.74681
vt 0.92188 0.74681
vt 0.93750 0.74681
vt 0.95312 0.74681
vt 0.96875 0.74681
vt 0.98438 0.74681
vt 0.00000 0.87341
vt 0.01562 0.87341
vt 0.03125 0.87341
vt 0.04688 0.87341
vt 0.06250 0.87341
vt 0.07812 0.87341
vt 0.09375 0.87341
vt 0.10938 0.87341
vt 0.12500 0.87341
vt 0.14062 0.87341
vt 0.15625 0.87341
vt 0.17188 0.87341
vt 0.18750 0.87341
vt 0.20312 0.87341
vt 0.21875 0.87341
vt 0.23438 0.87341
vt 0.25000 0.87341
vt 0.26562 0.87341
vt 0.28125 0.87341
vt 0.29688 0.87341
vt 0.31250 0.87341
vt 0.32812 0.87341
vt 0.34375 0.87341
vt 0.35938 0.87341
vt 0.37500 0.87341
vt 0.39062 0.87341
vt 0.40625 0.87341
vt 0.42188 0.87341
vt 0.43750 0.87341
vt 0.45312 0.87341
vt 0.46875 0.87341
vt 0.48438 0.87341
vt 0.50000 0.87341
vt 0.51562 0.87341
vt 0.53125 0.87341
vt 0.54688 0.87341
vt 0.56250 0.87341
vt 0.57812 0.87341
vt 0.59375 0.87341
vt 0.60938 0.87341
vt 0.62500 0.87341
vt 0.64062 0.87341
vt 0.65625 0.87341
vt 0.67188 0.87341
vt 0.68750 0.87341
vt 0.70312 0.87341
vt 0.71875 0.87341
vt 0.73438 0.87341
vt 0.75000 0.87341
vt 0.76562 0.87341
vt 0.78125 0.87341
vt 0.79688 0.87341
vt 0.81250 0.87341
vt 0.82812 0.87341
vt 0.84375 0.87341
vt 0.85938 0.87341
vt 0.87500 0.87341
vt 0.89062 0.87341
vt 0.90625 0.87341
vt 0.92188 0.87341
vt 0.93750 0.87341
vt 0.95312 0.87341
vt 0.96875 0.87341
vt 0.98438 0.87341
vt 0.00000 1.00000
vt 0.01562 1.00000
vt 0.03125 1.00000
vt 0.04688 1.00000
vt 0.06250 1.00000
vt 0.07812 1.00000
vt 0.09375 1.00000
vt 0.10938 1.00000
vt 0.12500 1.00000
vt 0.14062 1.00000
vt 0.15625 1.00000
vt 0.17188 1.00000
vt 0.18750 1.00000
vt 0.20312 1.00000
vt 0.21875 1.00000
vt 0.23438 1.00000
vt 0.25000 1.00000
vt 0.26562 1.00000
vt 0.28125 1.00000
vt 0.29688 1.00000
vt 0.31250 1.00000
vt 0.32812 1.00000
vt 0.34375 1.00000
vt 0.35938 1.00000
vt 0.37500 1.00000
vt 0.39062 1.00000
vt 0.40625 1.00000
vt 0.42188 1.00000
vt 0.43750 1.00000
vt 0.45312 1.00000
vt 0.46875 1.00000
vt 0.48438 1.00000
vt 0.50000 1.00000
vt 0.51562 1.00000
vt 0.53125 1.00000
vt 0.54688 1.00000
vt 0.56250 1.00000
vt 0.57812 1.00000
vt 0.59375 1.00000
vt 0.60938 1.00000
vt 0.62500 1.00000
vt 0.64062 1.00000
vt 0.65625 1.00000
vt 0.67188 1.00000
vt 0.68750 1.00000
vt 0.70312 1.00000
vt 0.71875 1.00000
vt 0.73438 1.00000
vt 0.75000 1.00000
vt 0.76562 1.00000
vt 0.78125 1.00000
vt 0.79688 1.00000
vt 0.81250 1.00000
vt 0.82812 1.00000
vt 0.84375 1.00000
vt 0.85938 1.00000
vt 0.87500 1.00000
vt 0.89062 1.00000
vt 0.90625 1.00000
vt 0.92188 1.00000
vt 0.93750 1.00000
vt 0.95312 1.00000
vt 0.96875 1.00000
vt 0.98438 1.00000
vt 0.50000 0.50000
vt 0.50000 0.50000

usemtl traffic_blue
f 1/1 4/4 3/3 2/2
f 2/2 3/3 4/4 1/1
f 5/5 6/6 7/7 8/8
f 8/8 7/7 6/6 5/5
f 1/1 2/2 6/6 5/5
f 5/5 6/6 2/2 1/1
f 2/2 3/3 7/7 6/6
f 6/6 7/7 3/3 2/2
f 3/3 4/4 8/8 7/7
f 7/7 8/8 4/4 3/3
f 4/4 1/1 5/5 8/8
f 8/8 5/5 1/1 4/4
f 9/9 11/11 12/12 10/10
f 10/10 12/12 11/11 9/9
f 11/11 13/13 14/14 12/12
f 12/12 14/14 13/13 11/11
f 13/13 15/15 16/16 14/14
f 14/14 16/16 15/15 13/13
f 15/15 17/17 18/18 16/16
f 16/16 18/18 17/17 15/15
f 17/17 19/19 20/20 18/18
f 18/18 20/20 19/19 17/17
f 19/19 21/21 22/22 20/20
f 20/20 22/22 21/21 19/19
f 21/21 23/23 24/24 22/22
f 22/22 24/24 23/23 21/21
f 23/23 25/25 26/26 24/24
f 24/24 26/26 25/25 23/23
f 25/25 27/27 28/28 26/26
f 26/26 28/28 27/27 25/25
f 27/27 29/29 30/30 28/28
f 28/28 30/30 29/29 27/27
f 29/29 31/31 32/32 30/30
f 30/30 32/32 31/31 29/29
f 31/31 33/33 34/34 32/32
f 32/32 34/34 33/33 31/31
f 33/33 35/35 36/36 34/34
f 34/34 36/36 35/35 33/33
f 35/35 37/37 38/38 36/36
f 36/36 38/38 37/37 35/35
f 37/37 39/39 40/40 38/38
f 38/38 40/40 39/39 37/37
f 39/39 41/41 42/42 40/40
f 40/40 42/42 41/41 39/39
f 41/41 43/43 44/44 42/42
f 42/42 44/44 43/43 41/41
f 43/43 45/45 46/46 44/44
f 44/44 46/46 45/45 43/43
f 45/45 47/47 48/48 46/46
f 46/46 48/48 47/47 45/45
f 47/47 49/49 50/50 48/48
f 48/48 50/50 49/49 47/47
f 49/49 51/51 52/52 50/50
f 50/50 52/52 51/51 49/49
f 51/51 53/53 54/54 52/52
f 52/52 54/54 53/53 51/51
f 53/53 55/55 56/56 54/54
f 54/54 56/56 55/55 53/53
f 55/55 57/57 58/58 56/56
f 56/56 58/58 57/57 55/55
f 57/57 59/59 60/60 58/58
f 58/58 60/60 59/59 57/57
f 59/59 61/61 62/62 60/60
f 60/60 62/62 61/61 59/59
f 61/61 63/63 64/64 62/62
f 62/62 64/64 63/63 61/61
f 63/63 65/65 66/66 64/64
f 64/64 66/66 65/65 63/63
f 65/65 67/67 68/68 66/66
f 66/66 68/68 67/67 65/65
f 67/67 69/69 70/70 68/68
f 68/68 70/70 69/69 67/67
f 69/69 71/71 72/72 70/70
f 70/70 72/72 71/71 69/69
f 71/71 73/73 74/74 72/72
f 72/72 74/74 73/73 71/71
f 73/73 75/75 76/76 74/74
f 74/74 76/76 75/75 73/73
f 75/75 77/77 78/78 76/76
f 76/76 78/78 77/77 75/75
f 77/77 79/79 80/80 78/78
f 78/78 80/80 79/79 77/77
f 79/79 81/81 82/82 80/80
f 80/80 82/82 81/81 79/79
f 81/81 83/83 84/84 82/82
f 82/82 84/84 83/83 81/81
f 83/83 85/85 86/86 84/84
f 84/84 86/86 85/85 83/83
f 85/85 87/87 88/88 86/86
f 86/86 88/88 87/87 85/85
f 87/87 89/89 90/90 88/88
f 88/88 90/90 89/89 87/87
f 89/89 91/91 92/92 90/90
f 90/90 92/92 91/91 89/89
f 91/91 93/93 94/94 92/92
f 92/92 94/94 93/93 91/91
f 93/93 95/95 96/96 94/94
f 94/94 96/96 95/95 93/93
f 95/95 97/97 98/98 96/96
f 96/96 98/98 97/97 95/95
f 97/97 99/99 100/100 98/98
f 98/98 100/100 99/99 97/97
f 99/99 101/101 102/102 100/100
f 100/100 102/102 101/101 99/99
f 101/101 103/103 104/104 102/102
f 102/102 104/104 103/103 101/101
f 103/103 105/105 106/106 104/104
f 104/104 106/106 105/105 103/103
f 105/105 107/107 108/108 106/106
f 106/106 108/108 107/107 105/105
f 107/107 109/109 110/110 108/108
f 108/108 110/110 109/109 107/107
f 109/109 111/111 112/112 110/110
f 110/110 112/112 111/111 109/109
f 111/111 113/113 114/114 112/112
f 112/112 114/114 113/113 111/111
f 113/113 115/115 116/116 114/114
f 114/114 116/116 115/115 113/113
f 115/115 117/117 118/118 116/116
f 116/116 118/118 117/117 115/115
f 117/117 119/119 120/120 118/118
f 118/118 120/120 119/119 117/117
f 119/119 121/121 122/122 120/120
f 120/120 122/122 121/121 119/119
f 121/121 123/123 124/124 122/122
f 122/122 124/124 123/123 121/121
f 123/123 125/125 126/126 124/124
f 124/124 126/126 125/125 123/123
f 125/125 127/127 128/128 126/126
f 126/126 128/128 127/127 125/125
f 127/127 129/129 130/130 128/128
f 128/128 130/130 129/129 127/127
f 129/129 131/131 132/132 130/130
f 130/130 132/132 131/131 129/129
f 131/131 133/133 134/134 132/132
f 132/132 134/134 133/133 131/131
f 133/133 135/135 136/136 134/134
f 134/134 136/136 135/135 133/133
f 135/135 9/9 10/10 136/136
f 136/136 10/10 9/9 135/135
f 137/137 138/138 202/202 201/201
f 201/201 202/202 138/138 137/137
f 138/138 139/139 203/203 202/202
f 202/202 203/203 139/139 138/138
f 139/139 140/140 204/204 203/203
f 203/203 204/204 140/140 139/139
f 140/140 141/141 205/205 204/204
f 204/204 205/205 141/141 140/140
f 141/141 142/142 206/206 205/205
f 205/205 206/206 142/142 141/141
f 142/142 143/143 207/207 206/206
f 206/206 207/207 143/143 142/142
f 143/143 144/144 208/208 207/207
f 207/207 208/208 144/144 143/143
f 144/144 145/145 209/209 208/208
f 208/208 209/209 145/145 144/144
f 145/145 146/146 210/210 209/209
f 209/209 210/210 146/146 145/145
f 146/146 147/147 211/211 210/210
f 210/210 211/211 147/147 146/146
f 147/147 148/148 212/212 211/211
f 211/211 212/212 148/148 147/147
f 148/148 149/149 213/213 212/212
f 212/212 213/213 149/149 148/148
f 149/149 150/150 214/214 213/213
f 213/213 214/214 150/150 149/149
f 150/150 151/151 215/215 214/214
f 214/214 215/215 151/151 150/150
f 151/151 152/152 216/216 215/215
f 215/215 216/216 152/152 151/151
f 152/152 153/153 217/217 216/216
f 216/216 217/217 153/153 152/152
f 153/153 154/154 218/218 217/217
f 217/217 218/218 154/154 153/153
f 154/154 155/155 219/219 218/218
f 218/218 219/219 155/155 154/154
f 155/155 156/156 220/220 219/219
f 219/219 220/220 156/156 155/155
f 156/156 157/157 221/221 220/220
f 220/220 221/221 157/157 156/156
f 157/157 158/158 222/222 221/221
f 221/221 222/222 158/158 157/157
f 158/158 159/159 223/223 222/222
f 222/222 223/223 159/159 158/158
f 159/159 160/160 224/224 223/223
f 223/223 224/224 160/160 159/159
f 160/160 161/161 225/225 224/224
f 224/224 225/225 161/161 160/160
f 161/161 162/162 226/226 225/225
f 225/225 226/226 162/162 161/161
f 162/162 163/163 227/227 226/226
f 226/226 227/227 163/163 162/162
f 163/163 164/164 228/228 227/227
f 227/227 228/228 164/164 163/163
f 164/164 165/165 229/229 228/228
f 228/228 229/229 165/165 164/164
f 165/165 166/166 230/230 229/229
f 229/229 230/230 166/166 165/165
f 166/166 167/167 231/231 230/230
f 230/230 231/231 167/167 166/166
f 167/167 168/168 232/232 231/231
f 231/231 232/232 168/168 167/167
f 168/168 169/169 233/233 232/232
f 232/232 233/233 169/169 168/168
f 169/169 170/170 234/234 233/233
f 233/233 234/234 170/170 169/169
f 170/170 171/171 235/235 234/234
f 234/234 235/235 171/171 170/170
f 171/171 172/172 236/236 235/235
f 235/235 236/236 172/172 171/171
f 172/172 173/173 237/237 236/236
f 236/236 237/237 173/173 172/172
f 173/173 174/174 238/238 237/237
f 237/237 238/238 174/174 173/173
f 174/174 175/175 239/239 238/238
f 238/238 239/239 175/175 174/174
f 175/175 176/176 240/240 239/239
f 239/239 240/240 176/176 175/175
f 176/176 177/177 241/241 240/240
f 240/240 241/241 177/177 176/176
f 177/177 178/178 242/242 241/241
f 241/241 242/242 178/178 177/177
f 178/178 179/179 243/243 242/242
f 242/242 243/243 179/179 178/178
f 179/179 180/180 244/244 243/243
f 243/243 244/244 180/180 179/179
f 180/180 181/181 245/245 244/244
f 244/244 245/245 181/181 180/180
f 181/181 182/182 246/246 245/245
f 245/245 246/246 182/182 181/181
f 182/182 183/183 247/247 246/246
f 246/246 247/247 183/183 182/182
f 183/183 184/184 248/248 247/247
f 247/247 248/248 184/184 183/183
f 184/184 185/185 249/249 248/248
f 248/248 249/249 185/185 184/184
f 185/185 186/186 250/250 249/249
f 249/249 250/250 186/186 185/185
f 186/186 187/187 251/251 250/250
f 250/250 251/251 187/187 186/186
f 187/187 188/188 252/252 251/251
f 251/251 252/252 188/188 187/187
f 188/188 189/189 253/253 252/252
f 252/252 253/253 189/189 188/188
f 189/189 190/190 254/254 253/253
f 253/253 254/254 190/190 189/189
f 190/190 191/191 255/255 254/254
f 254/254 255/255 191/191 190/190
f 191/191 192/192 256/256 255/255
f 255/255 256/256 192/192 191/191
f 192/192 193/193 257/257 256/256
f 256/256 257/257 193/193 192/192
f 193/193 194/194 258/258 257/257
f 257/257 258/258 194/194 193/193
f 194/194 195/195 259/259 258/258
f 258/258 259/259 195/195 194/194
f 195/195 196/196 260/260 259/259
f 259/259 260/260 196/196 195/195
f 196/196 197/197 261/261 260/260
f 260/260 261/261 197/197 196/196
f 197/197 198/198 262/262 261/261
f 261/261 262/262 198/198 197/197
f 198/198 199/199 263/263 262/262
f 262/262 263/263 199/199 198/198
f 199/199 200/200 264/264 263/263
f 263/263 264/264 200/200 199/199
f 200/200 137/137 201/201 264/264
f 264/264 201/201 137/137 200/200
f 201/201 202/202 266/266 265/265
f 265/265 266/266 202/202 201/201
f 202/202 203/203 267/267 266/266
f 266/266 267/267 203/203 202/202
f 203/203 204/204 268/268 267/267
f 267/267 268/268 204/204 203/203
f 204/204 205/205 269/269 268/268
f 268/268 269/269 205/205 204/204
f 205/205 206/206 270/270 269/269
f 269/269 270/270 206/206 205/205
f 206/206 207/207 271/271 270/270
f 270/270 271/271 207/207 206/206
f 207/207 208/208 272/272 271/271
f 271/271 272/272 208/208 207/207
f 208/208 209/209 273/273 272/272
f 272/272 273/273 209/209 208/208
f 209/209 210/210 274/274 273/273
f 273/273 274/274 210/210 209/209
f 210/210 211/211 275/275 274/274
f 274/274 275/275 211/211 210/210
f 211/211 212/212 276/276 275/275
f 275/275 276/276 212/212 211/211
f 212/212 213/213 277/277 276/276
f 276/276 277/277 213/213 212/212
f 213/213 214/214 278/278 277/277
f 277/277 278/278 214/214 213/213
f 214/214 215/215 279/279 278/278
f 278/278 279/279 215/215 214/214
f 215/215 216/216 280/280 279/279
f 279/279 280/280 216/216 215/215
f 216/216 217/217 281/281 280/280
f 280/280 281/281 217/217 216/216
f 217/217 218/218 282/282 281/281
f 281/281 282/282 218/218 217/217
f 218/218 219/219 283/283 282/282
f 282/282 283/283 219/219 218/218
f 219/219 220/220 284/284 283/283
f 283/283 284/284 220/220 219/219
f 220/220 221/221 285/285 284/284
f 284/284 285/285 221/221 220/220
f 221/221 222/222 286/286 285/285
f 285/285 286/286 222/222 221/221
f 222/222 223/223 287/287 286/286
f 286/286 287/287 223/223 222/222
f 223/223 224/224 288/288 287/287
f 287/287 288/288 224/224 223/223
f 224/224 225/225 289/289 288/288
f 288/288 289/289 225/225 224/224
f 225/225 226/226 290/290 289/289
f 289/289 290/290 226/226 225/225
f 226/226 227/227 291/291 290/290
f 290/290 291/291 227/227 226/226
f 227/227 228/228 292/292 291/291
f 291/291 292/292 228/228 227/227
f 228/228 229/229 293/293 292/292
f 292/292 293/293 229/229 228/228
f 229/229 230/230 294/294 293/293
f 293/293 294/294 230/230 229/229
f 230/230 231/231 295/295 294/294
f 294/294 295/295 231/231 230/230
f 231/231 232/232 296/296 295/295
f 295/295 296/296 232/232 231/231
f 232/232 233/233 297/297 296/296
f 296/296 297/297 233/233 232/232
f 233/233 234/234 298/298 297/297
f 297/297 298/298 234/234 233/233
f 234/234 235/235 299/299 298/298
f 298/298 299/299 235/235 234/234
f 235/235 236/236 300/300 299/299
f 299/299 300/300 236/236 235/235
f 236/236 237/237 301/301 300/300
f 300/300 301/301 237/237 236/236
f 237/237 238/238 302/302 301/301
f 301/301 302/302 238/238 237/237
f 238/238 239/239 303/303 302/302
f 302/302 303/303 239/239 238/238
f 239/239 240/240 304/304 303/303
f 303/303 304/304 240/240 239/239
f 240/240 241/241 305/305 304/304
f 304/304 305/305 241/241 240/240
f 241/241 242/242 306/306 305/305
f 305/305 306/306 242/242 241/241
f 242/242 243/243 307/307 306/306
f 306/306 307/307 243/243 242/242
f 243/243 244/244 308/308 307/307
f 307/307 308/308 244/244 243/243
f 244/244 245/245 309/309 308/308
f 308/308 309/309 245/245 244/244
f 245/245 246/246 310/310 309/309
f 309/309 310/310 246/246 245/245
f 246/246 247/247 311/311 310/310
f 310/310 311/311 247/247 246/246
f 247/247 248/248 312/312 311/311
f 311/311 312/312 248/248 247/247
f 248/248 249/249 313/313 312/312
f 312/312 313/313 249/249 248/248
f 249/249 250/250 314/314 313/313
f 313/313 314/314 250/250 249/249
f 250/250 251/251 315/315 314/314
f 314/314 315/315 251/251 250/250
f 251/251 252/252 316/316 315/315
f 315/315 316/316 252/252 251/251
f 252/252 253/253 317/317 316/316
f 316/316 317/317 253/253 252/252
f 253/253 254/254 318/318 317/317
f 317/317 318/318 254/254 253/253
f 254/254 255/255 319/319 318/318
f 318/318 319/319 255/255 254/254
f 255/255 256/256 320/320 319/319
f 319/319 320/320 256/256 255/255
f 256/256 257/257 321/321 320/320
f 320/320 321/321 257/257 256/256
f 257/257 258/258 322/322 321/321
f 321/321 322/322 258/258 257/257
f 258/258 259/259 323/323 322/322
f 322/322 323/323 259/259 258/258
f 259/259 260/260 324/324 323/323
f 323/323 324/324 260/260 259/259
f 260/260 261/261 325/325 324/324
f 324/324 325/325 261/261 260/260
f 261/261 262/262 326/326 325/325
f 325/325 326/326 262/262 261/261
f 262/262 263/263 327/327 326/326
f 326/326 327/327 263/263 262/262
f 263/263 264/264 328/328 327/327
f 327/327 328/328 264/264 263/263
f 264/264 201/201 265/265 328/328
f 328/328 265/265 201/201 264/264
f 265/265 266/266 330/330 329/329
f 329/329 330/330 266/266 265/265
f 266/266 267/267 331/331 330/330
f 330/330 331/331 267/267 266/266
f 267/267 268/268 332/332 331/331
f 331/331 332/332 268/268 267/267
f 268/268 269/269 333/333 332/332
f 332/332 333/333 269/269 268/268
f 269/269 270/270 334/334 333/333
f 333/333 334/334 270/270 269/269
f 270/270 271/271 335/335 334/334
f 334/334 335/335 271/271 270/270
f 271/271 272/272 336/336 335/335
f 335/335 336/336 272/272 271/271
f 272/272 273/273 337/337 336/336
f 336/336 337/337 273/273 272/272
f 273/273 274/274 338/338 337/337
f 337/337 338/338 274/274 273/273
f 274/274 275/275 339/339 338/338
f 338/338 339/339 275/275 274/274
f 275/275 276/276 340/340 339/339
f 339/339 340/340 276/276 275/275
f 276/276 277/277 341/341 340/340
f 340/340 341/341 277/277 276/276
f 277/277 278/278 342/342 341/341
f 341/341 342/342 278/278 277/277
f 278/278 279/279 343/343 342/342
f 342/342 343/343 279/279 278/278
f 279/279 280/280 344/344 343/343
f 343/343 344/344 280/280 279/279
f 280/280 281/281 345/345 344/344
f 344/344 345/345 281/281 280/280
f 281/281 282/282 346/346 345/345
f 345/345 346/346 282/282 281/281
f 282/282 283/283 347/347 346/346
f 346/346 347/347 283/283 282/282
f 283/283 284/284 348/348 347/347
f 347/347 348/348 284/284 283/283
f 284/284 285/285 349/349 348/348
f 348/348 349/349 285/285 284/284
f 285/285 286/286 350/350 349/349
f 349/349 350/350 286/286 285/285
f 286/286 287/287 351/351 350/350
f 350/350 351/351 287/287 286/286
f 287/287 288/288 352/352 351/351
f 351/351 352/352 288/288 287/287
f 288/288 289/289 353/353 352/352
f 352/352 353/353 289/289 288/288
f 289/289 290/290 354/354 353/353
f 353/353 354/354 290/290 289/289
f 290/290 291/291 355/355 354/354
f 354/354 355/355 291/291 290/290
f 291/291 292/292 356/356 355/355
f 355/355 356/356 292/292 291/291
f 292/292 293/293 357/357 356/356
f 356/356 357/357 293/293 292/292
f 293/293 294/294 358/358 357/357
f 357/357 358/358 294/294 293/293
f 294/294 295/295 359/359 358/358
f 358/358 359/359 295/295 294/294
f 295/295 296/296 360/360 359/359
f 359/359 360/360 296/296 295/295
f 296/296 297/297 361/361 360/360
f 360/360 361/361 297/297 296/296
f 297/297 298/298 362/362 361/361
f 361/361 362/362 298/298 297/297
f 298/298 299/299 363/363 362/362
f 362/362 363/363 299/299 298/298
f 299/299 300/300 364/364 363/363
f 363/363 364/364 300/300 299/299
f 300/300 301/301 365/365 364/364
f 364/364 365/365 301/301 300/300
f 301/301 302/302 366/366 365/365
f 365/365 366/366 302/302 301/301
f 302/302 303/303 367/367 366/366
f 366/366 367/367 303/303 302/302
f 303/303 304/304 368/368 367/367
f 367/367 368/368 304/304 303/303
f 304/304 305/305 369/369 368/368
f 368/368 369/369 305/305 304/304
f 305/305 306/306 370/370 369/369
f 369/369 370/370 306/306 305/305
f 306/306 307/307 371/371 370/370
f 370/370 371/371 307/307 306/306
f 307/307 308/308 372/372 371/371
f 371/371 372/372 308/308 307/307
f 308/308 309/309 373/373 372/372
f 372/372 373/373 309/309 308/308
f 309/309 310/310 374/374 373/373
f 373/373 374/374 310/310 309/309
f 310/310 311/311 375/375 374/374
f 374/374 375/375 311/311 310/310
f 311/311 312/312 376/376 375/375
f 375/375 376/376 312/312 311/311
f 312/312 313/313 377/377 376/376
f 376/376 377/377 313/313 312/312
f 313/313 314/314 378/378 377/377
f 377/377 378/378 314/314 313/313
f 314/314 315/315 379/379 378/378
f 378/378 379/379 315/315 314/314
f 315/315 316/316 380/380 379/379
f 379/379 380/380 316/316 315/315
f 316/316 317/317 381/381 380/380
f 380/380 381/381 317/317 316/316
f 317/317 318/318 382/382 381/381
f 381/381 382/382 318/318 317/317
f 318/318 319/319 383/383 382/382
f 382/382 383/383 319/319 318/318
f 319/319 320/320 384/384 383/383
f 383/383 384/384 320/320 319/319
f 320/320 321/321 385/385 384/384
f 384/384 385/385 321/321 320/320
f 321/321 322/322 386/386 385/385
f 385/385 386/386 322/322 321/321
f 322/322 323/323 387/387 386/386
f 386/386 387/387 323/323 322/322
f 323/323 324/324 388/388 387/387
f 387/387 388/388 324/324 323/323
f 324/324 325/325 389/389 388/388
f 388/388 389/389 325/325 324/324
f 325/325 326/326 390/390 389/389
f 389/389 390/390 326/326 325/325
f 326/326 327/327 391/391 390/390
f 390/390 391/391 327/327 326/326
f 327/327 328/328 392/392 391/391
f 391/391 392/392 328/328 327/327
f 328/328 265/265 329/329 392/392
f 392/392 329/329 265/265 328/328
f 329/329 330/330 394/394 393/393
f 393/393 394/394 330/330 329/329
f 330/330 331/331 395/395 394/394
f 394/394 395/395 331/331 330/330
f 331/331 332/332 396/396 395/395
f 395/395 396/396 332/332 331/331
f 332/332 333/333 397/397 396/396
f 396/396 397/397 333/333 332/332
f 333/333 334/334 398/398 397/397
f 397/397 398/398 334/334 333/333
f 334/334 335/335 399/399 398/398
f 398/398 399/399 335/335 334/334
f 335/335 336/336 400/400 399/399
f 399/399 400/400 336/336 335/335
f 336/336 337/337 401/401 400/400
f 400/400 401/401 337/337 336/336
f 337/337 338/338 402/402 401/401
f 401/401 402/402 338/338 337/337
f 338/338 339/339 403/403 402/402
f 402/402 403/403 339/339 338/338
f 339/339 340/340 404/404 403/403
f 403/403 404/404 340/340 339/339
f 340/340 341/341 405/405 404/404
f 404/404 405/405 341/341 340/340
f 341/341 342/342 406/406 405/405
f 405/405 406/406 342/342 341/341
f 342/342 343/343 407/407 406/406
f 406/406 407/407 343/343 342/342
f 343/343 344/344 408/408 407/407
f 407/407 408/408 344/344 343/343
f 344/344 345/345 409/409 408/408
f 408/408 409/409 345/345 344/344
f 345/345 346/346 410/410 409/409
f 409/409 410/410 346/346 345/345
f 346/346 347/347 411/411 410/410
f 410/410 411/411 347/347 346/346
f 347/347 348/348 412/412 411/411
f 411/411 412/412 348/348 347/347
f 348/348 349/349 413/413 412/412
f 412/412 413/413 349/349 348/348
f 349/349 350/350 414/414 413/413
f 413/413 414/414 350/350 349/349
f 350/350 351/351 415/415 414/414
f 414/414 415/415 351/351 350/350
f 351/351 352/352 416/416 415/415
f 415/415 416/416 352/352 351/351
f 352/352 353/353 417/417 416/416
f 416/416 417/417 353/353 352/352
f 353/353 354/354 418/418 417/417
f 417/417 418/418 354/354 353/353
f 354/354 355/355 419/419 418/418
f 418/418 419/419 355/355 354/354
f 355/355 356/356 420/420 419/419
f 419/419 420/420 356/356 355/355
f 356/356 357/357 421/421 420/420
f 420/420 421/421 357/357 356/356
f 357/357 358/358 422/422 421/421
f 421/421 422/422 358/358 357/357
f 358/358 359/359 423/423 422/422
f 422/422 423/423 359/359 358/358
f 359/359 360/360 424/424 423/423
f 423/423 424/424 360/360 359/359
f 360/360 361/361 425/425 424/424
f 424/424 425/425 361/361 360/360
f 361/361 362/362 426/426 425/425
f 425/425 426/426 362/362 361/361
f 362/362 363/363 427/427 426/426
f 426/426 427/427 363/363 362/362
f 363/363 364/364 428/428 427/427
f 427/427 428/428 364/364 363/363
f 364/364 365/365 429/429 428/428
f 428/428 429/429 365/365 364/364
f 365/365 366/366 430/430 429/429
f 429/429 430/430 366/366 365/365
f 366/366 367/367 431/431 430/430
f 430/430 431/431 367/367 366/366
f 367/367 368/368 432/432 431/431
f 431/431 432/432 368/368 367/367
f 368/368 369/369 433/433 432/432
f 432/432 433/433 369/369 368/368
f 369/369 370/370 434/434 433/433
f 433/433 434/434 370/370 369/369
f 370/370 371/371 435/435 434/434
f 434/434 435/435 371/371 370/370
f 371/371 372/372 436/436 435/435
f 435/435 436/436 372/372 371/371
f 372/372 373/373 437/437 436/436
f 436/436 437/437 373/373 372/372
f 373/373 374/374 438/438 437/437
f 437/437 438/438 374/374 373/373
f 374/374 375/375 439/439 438/438
f 438/438 439/439 375/375 374/374
f 375/375 376/376 440/440 439/439
f 439/439 440/440 376/376 375/375
f 376/376 377/377 441/441 440/440
f 440/440 441/441 377/377 376/376
f 377/377 378/378 442/442 441/441
f 441/441 442/442 378/378 377/377
f 378/378 379/379 443/443 442/442
f 442/442 443/443 379/379 378/378
f 379/379 380/380 444/444 443/443
f 443/443 444/444 380/380 379/379
f 380/380 381/381 445/445 444/444
f 444/444 445/445 381/381 380/380
f 381/381 382/382 446/446 445/445
f 445/445 446/446 382/382 381/381
f 382/382 383/383 447/447 446/446
f 446/446 447/447 383/383 382/382
f 383/383 384/384 448/448 447/447
f 447/447 448/448 384/384 383/383
f 384/384 385/385 449/449 448/448
f 448/448 449/449 385/385 384/384
f 385/385 386/386 450/450 449/449
f 449/449 450/450 386/386 385/385
f 386/386 387/387 451/451 450/450
f 450/450 451/451 387/387 386/386
f 387/387 388/388 452/452 451/451
f 451/451 452/452 388/388 387/387
f 388/388 389/389 453/453 452/452
f 452/452 453/453 389/389 388/388
f 389/389 390/390 454/454 453/453
f 453/453 454/454 390/390 389/389
f 390/390 391/391 455/455 454/454
f 454/454 455/455 391/391 390/390
f 391/391 392/392 456/456 455/455
f 455/455 456/456 392/392 391/391
f 392/392 329/329 393/393 456/456
f 456/456 393/393 329/329 392/392
usemtl white_stripe
f 393/393 394/394 458/458 457/457
f 457/457 458/458 394/394 393/393
f 394/394 395/395 459/459 458/458
f 458/458 459/459 395/395 394/394
f 395/395 396/396 460/460 459/459
f 459/459 460/460 396/396 395/395
f 396/396 397/397 461/461 460/460
f 460/460 461/461 397/397 396/396
f 397/397 398/398 462/462 461/461
f 461/461 462/462 398/398 397/397
f 398/398 399/399 463/463 462/462
f 462/462 463/463 399/399 398/398
f 399/399 400/400 464/464 463/463
f 463/463 464/464 400/400 399/399
f 400/400 401/401 465/465 464/464
f 464/464 465/465 401/401 400/400
f 401/401 402/402 466/466 465/465
f 465/465 466/466 402/402 401/401
f 402/402 403/403 467/467 466/466
f 466/466 467/467 403/403 402/402
f 403/403 404/404 468/468 467/467
f 467/467 468/468 404/404 403/403
f 404/404 405/405 469/469 468/468
f 468/468 469/469 405/405 404/404
f 405/405 406/406 470/470 469/469
f 469/469 470/470 406/406 405/405
f 406/406 407/407 471/471 470/470
f 470/470 471/471 407/407 406/406
f 407/407 408/408 472/472 471/471
f 471/471 472/472 408/408 407/407
f 408/408 409/409 473/473 472/472
f 472/472 473/473 409/409 408/408
f 409/409 410/410 474/474 473/473
f 473/473 474/474 410/410 409/409
f 410/410 411/411 475/475 474/474
f 474/474 475/475 411/411 410/410
f 411/411 412/412 476/476 475/475
f 475/475 476/476 412/412 411/411
f 412/412 413/413 477/477 476/476
f 476/476 477/477 413/413 412/412
f 413/413 414/414 478/478 477/477
f 477/477 478/478 414/414 413/413
f 414/414 415/415 479/479 478/478
f 478/478 479/479 415/415 414/414
f 415/415 416/416 480/480 479/479
f 479/479 480/480 416/416 415/415
f 416/416 417/417 481/481 480/480
f 480/480 481/481 417/417 416/416
f 417/417 418/418 482/482 481/481
f 481/481 482/482 418/418 417/417
f 418/418 419/419 483/483 482/482
f 482/482 483/483 419/419 418/418
f 419/419 420/420 484/484 483/483
f 483/483 484/484 420/420 419/419
f 420/420 421/421 485/485 484/484
f 484/484 485/485 421/421 420/420
f 421/421 422/422 486/486 485/485
f 485/485 486/486 422/422 421/421
f 422/422 423/423 487/487 486/486
f 486/486 487/487 423/423 422/422
f 423/423 424/424 488/488 487/487
f 487/487 488/488 424/424 423/423
f 424/424 425/425 489/489 488/488
f 488/488 489/489 425/425 424/424
f 425/425 426/426 490/490 489/489
f 489/489 490/490 426/426 425/425
f 426/426 427/427 491/491 490/490
f 490/490 491/491 427/427 426/426
f 427/427 428/428 492/492 491/491
f 491/491 492/492 428/428 427/427
f 428/428 429/429 493/493 492/492
f 492/492 493/493 429/429 428/428
f 429/429 430/430 494/494 493/493
f 493/493 494/494 430/430 429/429
f 430/430 431/431 495/495 494/494
f 494/494 495/495 431/431 430/430
f 431/431 432/432 496/496 495/495
f 495/495 496/496 432/432 431/431
f 432/432 433/433 497/497 496/496
f 496/496 497/497 433/433 432/432
f 433/433 434/434 498/498 497/497
f 497/497 498/498 434/434 433/433
f 434/434 435/435 499/499 498/498
f 498/498 499/499 435/435 434/434
f 435/435 436/436 500/500 499/499
f 499/499 500/500 436/436 435/435
f 436/436 437/437 501/501 500/500
f 500/500 501/501 437/437 436/436
f 437/437 438/438 502/502 501/501
f 501/501 502/502 438/438 437/437
f 438/438 439/439 503/503 502/502
f 502/502 503/503 439/439 438/438
f 439/439 440/440 504/504 503/503
f 503/503 504/504 440/440 439/439
f 440/440 441/441 505/505 504/504
f 504/504 505/505 441/441 440/440
f 441/441 442/442 506/506 505/505
f 505/505 506/506 442/442 441/441
f 442/442 443/443 507/507 506/506
f 506/506 507/507 443/443 442/442
f 443/443 444/444 508/508 507/507
f 507/507 508/508 444/444 443/443
f 444/444 445/445 509/509 508/508
f 508/508 509/509 445/445 444/444
f 445/445 446/446 510/510 509/509
f 509/509 510/510 446/446 445/445
f 446/446 447/447 511/511 510/510
f 510/510 511/511 447/447 446/446
f 447/447 448/448 512/512 511/511
f 511/511 512/512 448/448 447/447
f 448/448 449/449 513/513 512/512
f 512/512 513/513 449/449 448/448
f 449/449 450/450 514/514 513/513
f 513/513 514/514 450/450 449/449
f 450/450 451/451 515/515 514/514
f 514/514 515/515 451/451 450/450
f 451/451 452/452 516/516 515/515
f 515/515 516/516 452/452 451/451
f 452/452 453/453 517/517 516/516
f 516/516 517/517 453/453 452/452
f 453/453 454/454 518/518 517/517
f 517/517 518/518 454/454 453/453
f 454/454 455/455 519/519 518/518
f 518/518 519/519 455/455 454/454
f 455/455 456/456 520/520 519/519
f 519/519 520/520 456/456 455/455
f 456/456 393/393 457/457 520/520
f 520/520 457/457 393/393 456/456
f 457/457 458/458 522/522 521/521
f 521/521 522/522 458/458 457/457
f 458/458 459/459 523/523 522/522
f 522/522 523/523 459/459 458/458
f 459/459 460/460 524/524 523/523
f 523/523 524/524 460/460 459/459
f 460/460 461/461 525/525 524/524
f 524/524 525/525 461/461 460/460
f 461/461 462/462 526/526 525/525
f 525/525 526/526 462/462 461/461
f 462/462 463/463 527/527 526/526
f 526/526 527/527 463/463 462/462
f 463/463 464/464 528/528 527/527
f 527/527 528/528 464/464 463/463
f 464/464 465/465 529/529 528/528
f 528/528 529/529 465/465 464/464
f 465/465 466/466 530/530 529/529
f 529/529 530/530 466/466 465/465
f 466/466 467/467 531/531 530/530
f 530/530 531/531 467/467 466/466
f 467/467 468/468 532/532 531/531
f 531/531 532/532 468/468 467/467
f 468/468 469/469 533/533 532/532
f 532/532 533/533 469/469 468/468
f 469/469 470/470 534/534 533/533
f 533/533 534/534 470/470 469/469
f 470/470 471/471 535/535 534/534
f 534/534 535/535 471/471 470/470
f 471/471 472/472 536/536 535/535
f 535/535 536/536 472/472 471/471
f 472/472 473/473 537/537 536/536
f 536/536 537/537 473/473 472/472
f 473/473 474/474 538/538 537/537
f 537/537 538/538 474/474 473/473
f 474/474 475/475 539/539 538/538
f 538/538 539/539 475/475 474/474
f 475/475 476/476 540/540 539/539
f 539/539 540/540 476/476 475/475
f 476/476 477/477 541/541 540/540
f 540/540 541/541 477/477 476/476
f 477/477 478/478 542/542 541/541
f 541/541 542/542 478/478 477/477
f 478/478 479/479 543/543 542/542
f 542/542 543/543 479/479 478/478
f 479/479 480/480 544/544 543/543
f 543/543 544/544 480/480 479/479
f 480/480 481/481 545/545 544/544
f 544/544 545/545 481/481 480/480
f 481/481 482/482 546/546 545/545
f 545/545 546/546 482/482 481/481
f 482/482 483/483 547/547 546/546
f 546/546 547/547 483/483 482/482
f 483/483 484/484 548/548 547/547
f 547/547 548/548 484/484 483/483
f 484/484 485/485 549/549 548/548
f 548/548 549/549 485/485 484/484
f 485/485 486/486 550/550 549/549
f 549/549 550/550 486/486 485/485
f 486/486 487/487 551/551 550/550
f 550/550 551/551 487/487 486/486
f 487/487 488/488 552/552 551/551
f 551/551 552/552 488/488 487/487
f 488/488 489/489 553/553 552/552
f 552/552 553/553 489/489 488/488
f 489/489 490/490 554/554 553/553
f 553/553 554/554 490/490 489/489
f 490/490 491/491 555/555 554/554
f 554/554 555/555 491/491 490/490
f 491/491 492/492 556/556 555/555
f 555/555 556/556 492/492 491/491
f 492/492 493/493 557/557 556/556
f 556/556 557/557 493/493 492/492
f 493/493 494/494 558/558 557/557
f 557/557 558/558 494/494 493/493
f 494/494 495/495 559/559 558/558
f 558/558 559/559 495/495 494/494
f 495/495 496/496 560/560 559/559
f 559/559 560/560 496/496 495/495
f 496/496 497/497 561/561 560/560
f 560/560 561/561 497/497 496/496
f 497/497 498/498 562/562 561/561
f 561/561 562/562 498/498 497/497
f 498/498 499/499 563/563 562/562
f 562/562 563/563 499/499 498/498
f 499/499 500/500 564/564 563/563
f 563/563 564/564 500/500 499/499
f 500/500 501/501 565/565 564/564
f 564/564 565/565 501/501 500/500
f 501/501 502/502 566/566 565/565
f 565/565 566/566 502/502 501/501
f 502/502 503/503 567/567 566/566
f 566/566 567/567 503/503 502/502
f 503/503 504/504 568/568 567/567
f 567/567 568/568 504/504 503/503
f 504/504 505/505 569/569 568/568
f 568/568 569/569 505/505 504/504
f 505/505 506/506 570/570 569/569
f 569/569 570/570 506/506 505/505
f 506/506 507/507 571/571 570/570
f 570/570 571/571 507/507 506/506
f 507/507 508/508 572/572 571/571
f 571/571 572/572 508/508 507/507
f 508/508 509/509 573/573 572/572
f 572/572 573/573 509/509 508/508
f 509/509 510/510 574/574 573/573
f 573/573 574/574 510/510 509/509
f 510/510 511/511 575/575 574/574
f 574/574 575/575 511/511 510/510
f 511/511 512/512 576/576 575/575
f 575/575 576/576 512/512 511/511
f 512/512 513/513 577/577 576/576
f 576/576 577/577 513/513 512/512
f 513/513 514/514 578/578 577/577
f 577/577 578/578 514/514 513/513
f 514/514 515/515 579/579 578/578
f 578/578 579/579 515/515 514/514
f 515/515 516/516 580/580 579/579
f 579/579 580/580 516/516 515/515
f 516/516 517/517 581/581 580/580
f 580/580 581/581 517/517 516/516
f 517/517 518/518 582/582 581/581
f 581/581 582/582 518/518 517/517
f 518/518 519/519 583/583 582/582
f 582/582 583/583 519/519 518/518
f 519/519 520/520 584/584 583/583
f 583/583 584/584 520/520 519/519
f 520/520 457/457 521/521 584/584
f 584/584 521/521 457/457 520/520
usemtl traffic_blue
f 521/521 522/522 586/586 585/585
f 585/585 586/586 522/522 521/521
f 522/522 523/523 587/587 586/586
f 586/586 587/587 523/523 522/522
f 523/523 524/524 588/588 587/587
f 587/587 588/588 524/524 523/523
f 524/524 525/525 589/589 588/588
f 588/588 589/589 525/525 524/524
f 525/525 526/526 590/590 589/589
f 589/589 590/590 526/526 525/525
f 526/526 527/527 591/591 590/590
f 590/590 591/591 527/527 526/526
f 527/527 528/528 592/592 591/591
f 591/591 592/592 528/528 527/527
f 528/528 529/529 593/593 592/592
f 592/592 593/593 529/529 528/528
f 529/529 530/530 594/594 593/593
f 593/593 594/594 530/530 529/529
f 530/530 531/531 595/595 594/594
f 594/594 595/595 531/531 530/530
f 531/531 532/532 596/596 595/595
f 595/595 596/596 532/532 531/531
f 532/532 533/533 597/597 596/596
f 596/596 597/597 533/533 532/532
f 533/533 534/534 598/598 597/597
f 597/597 598/598 534/534 533/533
f 534/534 535/535 599/599 598/598
f 598/598 599/599 535/535 534/534
f 535/535 536/536 600/600 599/599
f 599/599 600/600 536/536 535/535
f 536/536 537/537 601/601 600/600
f 600/600 601/601 537/537 536/536
f 537/537 538/538 602/602 601/601
f 601/601 602/602 538/538 537/537
f 538/538 539/539 603/603 602/602
f 602/602 603/603 539/539 538/538
f 539/539 540/540 604/604 603/603
f 603/603 604/604 540/540 539/539
f 540/540 541/541 605/605 604/604
f 604/604 605/605 541/541 540/540
f 541/541 542/542 606/606 605/605
f 605/605 606/606 542/542 541/541
f 542/542 543/543 607/607 606/606
f 606/606 607/607 543/543 542/542
f 543/543 544/544 608/608 607/607
f 607/607 608/608 544/544 543/543
f 544/544 545/545 609/609 608/608
f 608/608 609/609 545/545 544/544
f 545/545 546/546 610/610 609/609
f 609/609 610/610 546/546 545/545
f 546/546 547/547 611/611 610/610
f 610/610 611/611 547/547 546/546
f 547/547 548/548 612/612 611/611
f 611/611 612/612 548/548 547/547
f 548/548 549/549 613/613 612/612
f 612/612 613/613 549/549 548/548
f 549/549 550/550 614/614 613/613
f 613/613 614/614 550/550 549/549
f 550/550 551/551 615/615 614/614
f 614/614 615/615 551/551 550/550
f 551/551 552/552 616/616 615/615
f 615/615 616/616 552/552 551/551
f 552/552 553/553 617/617 616/616
f 616/616 617/617 553/553 552/552
f 553/553 554/554 618/618 617/617
f 617/617 618/618 554/554 553/553
f 554/554 555/555 619/619 618/618
f 618/618 619/619 555/555 554/554
f 555/555 556/556 620/620 619/619
f 619/619 620/620 556/556 555/555
f 556/556 557/557 621/621 620/620
f 620/620 621/621 557/557 556/556
f 557/557 558/558 622/622 621/621
f 621/621 622/622 558/558 557/557
f 558/558 559/559 623/623 622/622
f 622/622 623/623 559/559 558/558
f 559/559 560/560 624/624 623/623
f 623/623 624/624 560/560 559/559
f 560/560 561/561 625/625 624/624
f 624/624 625/625 561/561 560/560
f 561/561 562/562 626/626 625/625
f 625/625 626/626 562/562 561/561
f 562/562 563/563 627/627 626/626
f 626/626 627/627 563/563 562/562
f 563/563 564/564 628/628 627/627
f 627/627 628/628 564/564 563/563
f 564/564 565/565 629/629 628/628
f 628/628 629/629 565/565 564/564
f 565/565 566/566 630/630 629/629
f 629/629 630/630 566/566 565/565
f 566/566 567/567 631/631 630/630
f 630/630 631/631 567/567 566/566
f 567/567 568/568 632/632 631/631
f 631/631 632/632 568/568 567/567
f 568/568 569/569 633/633 632/632
f 632/632 633/633 569/569 568/568
f 569/569 570/570 634/634 633/633
f 633/633 634/634 570/570 569/569
f 570/570 571/571 635/635 634/634
f 634/634 635/635 571/571 570/570
f 571/571 572/572 636/636 635/635
f 635/635 636/636 572/572 571/571
f 572/572 573/573 637/637 636/636
f 636/636 637/637 573/573 572/572
f 573/573 574/574 638/638 637/637
f 637/637 638/638 574/574 573/573
f 574/574 575/575 639/639 638/638
f 638/638 639/639 575/575 574/574
f 575/575 576/576 640/640 639/639
f 639/639 640/640 576/576 575/575
f 576/576 577/577 641/641 640/640
f 640/640 641/641 577/577 576/576
f 577/577 578/578 642/642 641/641
f 641/641 642/642 578/578 577/577
f 578/578 579/579 643/643 642/642
f 642/642 643/643 579/579 578/578
f 579/579 580/580 644/644 643/643
f 643/643 644/644 580/580 579/579
f 580/580 581/581 645/645 644/644
f 644/644 645/645 581/581 580/580
f 581/581 582/582 646/646 645/645
f 645/645 646/646 582/582 581/581
f 582/582 583/583 647/647 646/646
f 646/646 647/647 583/583 582/582
f 583/583 584/584 648/648 647/647
f 647/647 648/648 584/584 583/583
f 584/584 521/521 585/585 648/648
f 648/648 585/585 521/521 584/584
f 585/585 586/586 650/650 649/649
f 649/649 650/650 586/586 585/585
f 586/586 587/587 651/651 650/650
f 650/650 651/651 587/587 586/586
f 587/587 588/588 652/652 651/651
f 651/651 652/652 588/588 587/587
f 588/588 589/589 653/653 652/652
f 652/652 653/653 589/589 588/588
f 589/589 590/590 654/654 653/653
f 653/653 654/654 590/590 589/589
f 590/590 591/591 655/655 654/654
f 654/654 655/655 591/591 590/590
f 591/591 592/592 656/656 655/655
f 655/655 656/656 592/592 591/591
f 592/592 593/593 657/657 656/656
f 656/656 657/657 593/593 592/592
f 593/593 594/594 658/658 657/657
f 657/657 658/658 594/594 593/593
f 594/594 595/595 659/659 658/658
f 658/658 659/659 595/595 594/594
f 595/595 596/596 660/660 659/659
f 659/659 660/660 596/596 595/595
f 596/596 597/597 661/661 660/660
f 660/660 661/661 597/597 596/596
f 597/597 598/598 662/662 661/661
f 661/661 662/662 598/598 597/597
f 598/598 599/599 663/663 662/662
f 662/662 663/663 599/599 598/598
f 599/599 600/600 664/664 663/663
f 663/663 664/664 600/600 599/599
f 600/600 601/601 665/665 664/664
f 664/664 665/665 601/601 600/600
f 601/601 602/602 666/666 665/665
f 665/665 666/666 602/602 601/601
f 602/602 603/603 667/667 666/666
f 666/666 667/667 603/603 602/602
f 603/603 604/604 668/668 667/667
f 667/667 668/668 604/604 603/603
f 604/604 605/605 669/669 668/668
f 668/668 669/669 605/605 604/604
f 605/605 606/606 670/670 669/669
f 669/669 670/670 606/606 605/605
f 606/606 607/607 671/671 670/670
f 670/670 671/671 607/607 606/606
f 607/607 608/608 672/672 671/671
f 671/671 672/672 608/608 607/607
f 608/608 609/609 673/673 672/672
f 672/672 673/673 609/609 608/608
f 609/609 610/610 674/674 673/673
f 673/673 674/674 610/610 609/609
f 610/610 611/611 675/675 674/674
f 674/674 675/675 611/611 610/610
f 611/611 612/612 676/676 675/675
f 675/675 676/676 612/612 611/611
f 612/612 613/613 677/677 676/676
f 676/676 677/677 613/613 612/612
f 613/613 614/614 678/678 677/677
f 677/677 678/678 614/614 613/613
f 614/614 615/615 679/679 678/678
f 678/678 679/679 615/615 614/614
f 615/615 616/616 680/680 679/679
f 679/679 680/680 616/616 615/615
f 616/616 617/617 681/681 680/680
f 680/680 681/681 617/617 616/616
f 617/617 618/618 682/682 681/681
f 681/681 682/682 618/618 617/617
f 618/618 619/619 683/683 682/682
f 682/682 683/683 619/619 618/618
f 619/619 620/620 684/684 683/683
f 683/683 684/684 620/620 619/619
f 620/620 621/621 685/685 684/684
f 684/684 685/685 621/621 620/620
f 621/621 622/622 686/686 685/685
f 685/685 686/686 622/622 621/621
f 622/622 623/623 687/687 686/686
f 686/686 687/687 623/623 622/622
f 623/623 624/624 688/688 687/687
f 687/687 688/688 624/624 623/623
f 624/624 625/625 689/689 688/688
f 688/688 689/689 625/625 624/624
f 625/625 626/626 690/690 689/689
f 689/689 690/690 626/626 625/625
f 626/626 627/627 691/691 690/690
f 690/690 691/691 627/627 626/626
f 627/627 628/628 692/692 691/691
f 691/691 692/692 628/628 627/627
f 628/628 629/629 693/693 692/692
f 692/692 693/693 629/629 628/628
f 629/629 630/630 694/694 693/693
f 693/693 694/694 630/630 629/629
f 630/630 631/631 695/695 694/694
f 694/694 695/695 631/631 630/630
f 631/631 632/632 696/696 695/695
f 695/695 696/696 632/632 631/631
f 632/632 633/633 697/697 696/696
f 696/696 697/697 633/633 632/632
f 633/633 634/634 698/698 697/697
f 697/697 698/698 634/634 633/633
f 634/634 635/635 699/699 698/698
f 698/698 699/699 635/635 634/634
f 635/635 636/636 700/700 699/699
f 699/699 700/700 636/636 635/635
f 636/636 637/637 701/701 700/700
f 700/700 701/701 637/637 636/636
f 637/637 638/638 702/702 701/701
f 701/701 702/702 638/638 637/637
f 638/638 639/639 703/703 702/702
f 702/702 703/703 639/639 638/638
f 639/639 640/640 704/704 703/703
f 703/703 704/704 640/640 639/639
f 640/640 641/641 705/705 704/704
f 704/704 705/705 641/641 640/640
f 641/641 642/642 706/706 705/705
f 705/705 706/706 642/642 641/641
f 642/642 643/643 707/707 706/706
f 706/706 707/707 643/643 642/642
f 643/643 644/644 708/708 707/707
f 707/707 708/708 644/644 643/643
f 644/644 645/645 709/709 708/708
f 708/708 709/709 645/645 644/644
f 645/645 646/646 710/710 709/709
f 709/709 710/710 646/646 645/645
f 646/646 647/647 711/711 710/710
f 710/710 711/711 647/647 646/646
f 647/647 648/648 712/712 711/711
f 711/711 712/712 648/648 647/647
f 648/648 585/585 649/649 712/712
f 712/712 649/649 585/585 648/648
f 649/649 650/650 714/714 713/713
f 713/713 714/714 650/650 649/649
f 650/650 651/651 715/715 714/714
f 714/714 715/715 651/651 650/650
f 651/651 652/652 716/716 715/715
f 715/715 716/716 652/652 651/651
f 652/652 653/653 717/717 716/716
f 716/716 717/717 653/653 652/652
f 653/653 654/654 718/718 717/717
f 717/717 718/718 654/654 653/653
f 654/654 655/655 719/719 718/718
f 718/718 719/719 655/655 654/654
f 655/655 656/656 720/720 719/719
f 719/719 720/720 656/656 655/655
f 656/656 657/657 721/721 720/720
f 720/720 721/721 657/657 656/656
f 657/657 658/658 722/722 721/721
f 721/721 722/722 658/658 657/657
f 658/658 659/659 723/723 722/722
f 722/722 723/723 659/659 658/658
f 659/659 660/660 724/724 723/723
f 723/723 724/724 660/660 659/659
f 660/660 661/661 725/725 724/724
f 724/724 725/725 661/661 660/660
f 661/661 662/662 726/726 725/725
f 725/725 726/726 662/662 661/661
f 662/662 663/663 727/727 726/726
f 726/726 727/727 663/663 662/662
f 663/663 664/664 728/728 727/727
f 727/727 728/728 664/664 663/663
f 664/664 665/665 729/729 728/728
f 728/728 729/729 665/665 664/664
f 665/665 666/666 730/730 729/729
f 729/729 730/730 666/666 665/665
f 666/666 667/667 731/731 730/730
f 730/730 731/731 667/667 666/666
f 667/667 668/668 732/732 731/731
f 731/731 732/732 668/668 667/667
f 668/668 669/669 733/733 732/732
f 732/732 733/733 669/669 668/668
f 669/669 670/670 734/734 733/733
f 733/733 734/734 670/670 669/669
f 670/670 671/671 735/735 734/734
f 734/734 735/735 671/671 670/670
f 671/671 672/672 736/736 735/735
f 735/735 736/736 672/672 671/671
f 672/672 673/673 737/737 736/736
f 736/736 737/737 673/673 672/672
f 673/673 674/674 738/738 737/737
f 737/737 738/738 674/674 673/673
f 674/674 675/675 739/739 738/738
f 738/738 739/739 675/675 674/674
f 675/675 676/676 740/740 739/739
f 739/739 740/740 676/676 675/675
f 676/676 677/677 741/741 740/740
f 740/740 741/741 677/677 676/676
f 677/677 678/678 742/742 741/741
f 741/741 742/742 678/678 677/677
f 678/678 679/679 743/743 742/742
f 742/742 743/743 679/679 678/678
f 679/679 680/680 744/744 743/743
f 743/743 744/744 680/680 679/679
f 680/680 681/681 745/745 744/744
f 744/744 745/745 681/681 680/680
f 681/681 682/682 746/746 745/745
f 745/745 746/746 682/682 681/681
f 682/682 683/683 747/747 746/746
f 746/746 747/747 683/683 682/682
f 683/683 684/684 748/748 747/747
f 747/747 748/748 684/684 683/683
f 684/684 685/685 749/749 748/748
f 748/748 749/749 685/685 684/684
f 685/685 686/686 750/750 749/749
f 749/749 750/750 686/686 685/685
f 686/686 687/687 751/751 750/750
f 750/750 751/751 687/687 686/686
f 687/687 688/688 752/752 751/751
f 751/751 752/752 688/688 687/687
f 688/688 689/689 753/753 752/752
f 752/752 753/753 689/689 688/688
f 689/689 690/690 754/754 753/753
f 753/753 754/754 690/690 689/689
f 690/690 691/691 755/755 754/754
f 754/754 755/755 691/691 690/690
f 691/691 692/692 756/756 755/755
f 755/755 756/756 692/692 691/691
f 692/692 693/693 757/757 756/756
f 756/756 757/757 693/693 692/692
f 693/693 694/694 758/758 757/757
f 757/757 758/758 694/694 693/693
f 694/694 695/695 759/759 758/758
f 758/758 759/759 695/695 694/694
f 695/695 696/696 760/760 759/759
f 759/759 760/760 696/696 695/695
f 696/696 697/697 761/761 760/760
f 760/760 761/761 697/697 696/696
f 697/697 698/698 762/762 761/761
f 761/761 762/762 698/698 697/697
f 698/698 699/699 763/763 762/762
f 762/762 763/763 699/699 698/698
f 699/699 700/700 764/764 763/763
f 763/763 764/764 700/700 699/699
f 700/700 701/701 765/765 764/764
f 764/764 765/765 701/701 700/700
f 701/701 702/702 766/766 765/765
f 765/765 766/766 702/702 701/701
f 702/702 703/703 767/767 766/766
f 766/766 767/767 703/703 702/702
f 703/703 704/704 768/768 767/767
f 767/767 768/768 704/704 703/703
f 704/704 705/705 769/769 768/768
f 768/768 769/769 705/705 704/704
f 705/705 706/706 770/770 769/769
f 769/769 770/770 706/706 705/705
f 706/706 707/707 771/771 770/770
f 770/770 771/771 707/707 706/706
f 707/707 708/708 772/772 771/771
f 771/771 772/772 708/708 707/707
f 708/708 709/709 773/773 772/772
f 772/772 773/773 709/709 708/708
f 709/709 710/710 774/774 773/773
f 773/773 774/774 710/710 709/709
f 710/710 711/711 775/775 774/774
f 774/774 775/775 711/711 710/710
f 711/711 712/712 776/776 775/775
f 775/775 776/776 712/712 711/711
f 712/712 649/649 713/713 776/776
f 776/776 713/713 649/649 712/712
f 777/777 137/137 138/138
f 138/138 137/137 777/777
f 777/777 138/138 139/139
f 139/139 138/138 777/777
f 777/777 139/139 140/140
f 140/140 139/139 777/777
f 777/777 140/140 141/141
f 141/141 140/140 777/777
f 777/777 141/141 142/142
f 142/142 141/141 777/777
f 777/777 142/142 143/143
f 143/143 142/142 777/777
f 777/777 143/143 144/144
f 144/144 143/143 777/777
f 777/777 144/144 145/145
f 145/145 144/144 777/777
f 777/777 145/145 146/146
f 146/146 145/145 777/777
f 777/777 146/146 147/147
f 147/147 146/146 777/777
f 777/777 147/147 148/148
f 148/148 147/147 777/777
f 777/777 148/148 149/149
f 149/149 148/148 777/777
f 777/777 149/149 150/150
f 150/150 149/149 777/777
f 777/777 150/150 151/151
f 151/151 150/150 777/777
f 777/777 151/151 152/152
f 152/152 151/151 777/777
f 777/777 152/152 153/153
f 153/153 152/152 777/777
f 777/777 153/153 154/154
f 154/154 153/153 777/777
f 777/777 154/154 155/155
f 155/155 154/154 777/777
f 777/777 155/155 156/156
f 156/156 155/155 777/777
f 777/777 156/156 157/157
f 157/157 156/156 777/777
f 777/777 157/157 158/158
f 158/158 157/157 777/777
f 777/777 158/158 159/159
f 159/159 158/158 777/777
f 777/777 159/159 160/160
f 160/160 159/159 777/777
f 777/777 160/160 161/161
f 161/161 160/160 777/777
f 777/777 161/161 162/162
f 162/162 161/161 777/777
f 777/777 162/162 163/163
f 163/163 162/162 777/777
f 777/777 163/163 164/164
f 164/164 163/163 777/777
f 777/777 164/164 165/165
f 165/165 164/164 777/777
f 777/777 165/165 166/166
f 166/166 165/165 777/777
f 777/777 166/166 167/167
f 167/167 166/166 777/777
f 777/777 167/167 168/168
f 168/168 167/167 777/777
f 777/777 168/168 169/169
f 169/169 168/168 777/777
f 777/777 169/169 170/170
f 170/170 169/169 777/777
f 777/777 170/170 171/171
f 171/171 170/170 777/777
f 777/777 171/171 172/172
f 172/172 171/171 777/777
f 777/777 172/172 173/173
f 173/173 172/172 777/777
f 777/777 173/173 174/174
f 174/174 173/173 777/777
f 777/777 174/174 175/175
f 175/175 174/174 777/777
f 777/777 175/175 176/176
f 176/176 175/175 777/777
f 777/777 176/176 177/177
f 177/177 176/176 777/777
f 777/777 177/177 178/178
f 178/178 177/177 777/777
f 777/777 178/178 179/179
f 179/179 178/178 777/777
f 777/777 179/179 180/180
f 180/180 179/179 777/777
f 777/777 180/180 181/181
f 181/181 180/180 777/777
f 777/777 181/181 182/182
f 182/182 181/181 777/777
f 777/777 182/182 183/183
f 183/183 182/182 777/777
f 777/777 183/183 184/184
f 184/184 183/183 777/777
f 777/777 184/184 185/185
f 185/185 184/184 777/777
f 777/777 185/185 186/186
f 186/186 185/185 777/777
f 777/777 186/186 187/187
f 187/187 186/186 777/777
f 777/777 187/187 188/188
f 188/188 187/187 777/777
f 777/777 188/188 189/189
f 189/189 188/188 777/777
f 777/777 189/189 190/190
f 190/190 189/189 777/777
f 777/777 190/190 191/191
f 191/191 190/190 777/777
f 777/777 191/191 192/192
f 192/192 191/191 777/777
f 777/777 192/192 193/193
f 193/193 192/192 777/777
f 777/777 193/193 194/194
f 194/194 193/193 777/777
f 777/777 194/194 195/195
f 195/195 194/194 777/777
f 777/777 195/195 196/196
f 196/196 195/195 777/777
f 777/777 196/196 197/197
f 197/197 196/196 777/777
f 777/777 197/197 198/198
f 198/198 197/197 777/777
f 777/777 198/198 199/199
f 199/199 198/198 777/777
f 777/777 199/199 200/200
f 200/200 199/199 777/777
f 777/777 200/200 137/137
f 137/137 200/200 777/777
f 778/778 713/713 714/714
f 714/714 713/713 778/778
f 778/778 714/714 715/715
f 715/715 714/714 778/778
f 778/778 715/715 716/716
f 716/716 715/715 778/778
f 778/778 716/716 717/717
f 717/717 716/716 778/778
f 778/778 717/717 718/718
f 718/718 717/717 778/778
f 778/778 718/718 719/719
f 719/719 718/718 778/778
f 778/778 719/719 720/720
f 720/720 719/719 778/778
f 778/778 720/720 721/721
f 721/721 720/720 778/778
f 778/778 721/721 722/722
f 722/722 721/721 778/778
f 778/778 722/722 723/723
f 723/723 722/722 778/778
f 778/778 723/723 724/724
f 724/724 723/723 778/778
f 778/778 724/724 725/725
f 725/725 724/724 778/778
f 778/778 725/725 726/726
f 726/726 725/725 778/778
f 778/778 726/726 727/727
f 727/727 726/726 778/778
f 778/778 727/727 728/728
f 728/728 727/727 778/778
f 778/778 728/728 729/729
f 729/729 728/728 778/778
f 778/778 729/729 730/730
f 730/730 729/729 778/778
f 778/778 730/730 731/731
f 731/731 730/730 778/778
f 778/778 731/731 732/732
f 732/732 731/731 778/778
f 778/778 732/732 733/733
f 733/733 732/732 778/778
f 778/778 733/733 734/734
f 734/734 733/733 778/778
f 778/778 734/734 735/735
f 735/735 734/734 778/778
f 778/778 735/735 736/736
f 736/736 735/735 778/778
f 778/778 736/736 737/737
f 737/737 736/736 778/778
f 778/778 737/737 738/738
f 738/738 737/737 778/778
f 778/778 738/738 739/739
f 739/739 738/738 778/778
f 778/778 739/739 740/740
f 740/740 739/739 778/778
f 778/778 740/740 741/741
f 741/741 740/740 778/778
f 778/778 741/741 742/742
f 742/742 741/741 778/778
f 778/778 742/742 743/743
f 743/743 742/742 778/778
f 778/778 743/743 744/744
f 744/744 743/743 778/778
f 778/778 744/744 745/745
f 745/745 744/744 778/778
f 778/778 745/745 746/746
f 746/746 745/745 778/778
f 778/778 746/746 747/747
f 747/747 746/746 778/778
f 778/778 747/747 748/748
f 748/748 747/747 778/778
f 778/778 748/748 749/749
f 749/749 748/748 778/778
f 778/778 749/749 750/750
f 750/750 749/749 778/778
f 778/778 750/750 751/751
f 751/751 750/750 778/778
f 778/778 751/751 752/752
f 752/752 751/751 778/778
f 778/778 752/752 753/753
f 753/753 752/752 778/778
f 778/778 753/753 754/754
f 754/754 753/753 778/778
f 778/778 754/754 755/755
f 755/755 754/754 778/778
f 778/778 755/755 756/756
f 756/756 755/755 778/778
f 778/778 756/756 757/757
f 757/757 756/756 778/778
f 778/778 757/757 758/758
f 758/758 757/757 778/778
f 778/778 758/758 759/759
f 759/759 758/758 778/778
f 778/778 759/759 760/760
f 760/760 759/759 778/778
f 778/778 760/760 761/761
f 761/761 760/760 778/778
f 778/778 761/761 762/762
f 762/762 761/761 778/778
f 778/778 762/762 763/763
f 763/763 762/762 778/778
f 778/778 763/763 764/764
f 764/764 763/763 778/778
f 778/778 764/764 765/765
f 765/765 764/764 778/778
f 778/778 765/765 766/766
f 766/766 765/765 778/778
f 778/778 766/766 767/767
f 767/767 766/766 778/778
f 778/778 767/767 768/768
f 768/768 767/767 778/778
f 778/778 768/768 769/769
f 769/769 768/768 778/778
f 778/778 769/769 770/770
f 770/770 769/769 778/778
f 778/778 770/770 771/771
f 771/771 770/770 778/778
f 778/778 771/771 772/772
f 772/772 771/771 778/778
f 778/778 772/772 773/773
f 773/773 772/772 778/778
f 778/778 773/773 774/774
f 774/774 773/773 778/778
f 778/778 774/774 775/775
f 775/775 774/774 778/778
f 778/778 775/775 776/776
f 776/776 775/775 778/778
f 778/778 776/776 713/713
f 713/713 776/776 778/778
